<mxfile host="Electron" agent="Mozilla/5.0 (Windows NT 10.0; Win64; x64) AppleWebKit/537.36 (KHTML, like Gecko) draw.io/24.7.8 Chrome/128.0.6613.36 Electron/32.0.1 Safari/537.36" version="24.7.8">
  <diagram name="Page-1" id="GYt-aJJ-jVVPIxc6knk6">
    <mxGraphModel dx="4417" dy="1987" grid="1" gridSize="10" guides="1" tooltips="1" connect="1" arrows="1" fold="1" page="1" pageScale="1" pageWidth="850" pageHeight="1100" math="0" shadow="0">
      <root>
        <mxCell id="0" />
        <mxCell id="1" parent="0" />
        <mxCell id="VLrxsNaVs1hE1eF33SKw-1" value="&lt;p style=&quot;margin:0px;margin-top:4px;text-align:center;&quot;&gt;&lt;b&gt;Ticket&lt;/b&gt;&lt;/p&gt;&lt;hr size=&quot;1&quot; style=&quot;border-style:solid;&quot;&gt;&lt;p style=&quot;margin:0px;margin-left:4px;&quot;&gt;+ Ticketing Code&lt;/p&gt;&lt;p style=&quot;margin:0px;margin-left:4px;&quot;&gt;+ Number&lt;/p&gt;&lt;hr size=&quot;1&quot; style=&quot;border-style:solid;&quot;&gt;&lt;p style=&quot;margin:0px;margin-left:4px;&quot;&gt;&lt;br&gt;&lt;/p&gt;" style="verticalAlign=top;align=left;overflow=fill;html=1;whiteSpace=wrap;fillColor=#dae8fc;rounded=1;gradientColor=#7ea6e0;strokeColor=#6c8ebf;" parent="1" vertex="1">
          <mxGeometry x="-1240" y="410" width="160" height="60" as="geometry" />
        </mxCell>
        <mxCell id="VLrxsNaVs1hE1eF33SKw-2" value="&lt;p style=&quot;margin:0px;margin-top:4px;text-align:center;&quot;&gt;&lt;b&gt;Coupon&lt;/b&gt;&lt;/p&gt;&lt;hr size=&quot;1&quot; style=&quot;border-style:solid;&quot;&gt;&lt;p style=&quot;margin:0px;margin-left:4px;&quot;&gt;+ Date of Redemption&lt;/p&gt;&lt;p style=&quot;margin:0px;margin-left:4px;&quot;&gt;+ Class&lt;/p&gt;&lt;p style=&quot;margin:0px;margin-left:4px;&quot;&gt;+ Standby&lt;/p&gt;&lt;p style=&quot;margin:0px;margin-left:4px;&quot;&gt;+ Meal Code&lt;/p&gt;&lt;hr size=&quot;1&quot; style=&quot;border-style:solid;&quot;&gt;&lt;p style=&quot;margin:0px;margin-left:4px;&quot;&gt;&lt;br&gt;&lt;/p&gt;" style="verticalAlign=top;align=left;overflow=fill;html=1;whiteSpace=wrap;fillColor=#dae8fc;rounded=1;gradientColor=#7ea6e0;strokeColor=#6c8ebf;" parent="1" vertex="1">
          <mxGeometry x="-1240" y="585" width="160" height="90" as="geometry" />
        </mxCell>
        <mxCell id="VLrxsNaVs1hE1eF33SKw-3" value="&lt;p style=&quot;margin:0px;margin-top:4px;text-align:center;&quot;&gt;&lt;b&gt;Pieces of Luggage&lt;/b&gt;&lt;/p&gt;&lt;hr size=&quot;1&quot; style=&quot;border-style:solid;&quot;&gt;&lt;p style=&quot;margin:0px;margin-left:4px;&quot;&gt;+ Number&lt;/p&gt;&lt;p style=&quot;margin:0px;margin-left:4px;&quot;&gt;+ Weight&lt;/p&gt;&lt;hr size=&quot;1&quot; style=&quot;border-style:solid;&quot;&gt;&lt;p style=&quot;margin:0px;margin-left:4px;&quot;&gt;&lt;br&gt;&lt;/p&gt;" style="verticalAlign=top;align=left;overflow=fill;html=1;whiteSpace=wrap;fillColor=#dae8fc;rounded=1;gradientColor=#7ea6e0;strokeColor=#6c8ebf;" parent="1" vertex="1">
          <mxGeometry x="-1340" y="725" width="160" height="60" as="geometry" />
        </mxCell>
        <mxCell id="VLrxsNaVs1hE1eF33SKw-4" value="" style="endArrow=diamondThin;endFill=0;endSize=24;html=1;rounded=1;entryX=0.5;entryY=1;entryDx=0;entryDy=0;exitX=0.5;exitY=0;exitDx=0;exitDy=0;" parent="1" source="VLrxsNaVs1hE1eF33SKw-2" target="VLrxsNaVs1hE1eF33SKw-1" edge="1">
          <mxGeometry width="160" relative="1" as="geometry">
            <mxPoint x="-1160" y="550" as="sourcePoint" />
            <mxPoint x="-1000" y="550" as="targetPoint" />
          </mxGeometry>
        </mxCell>
        <mxCell id="VLrxsNaVs1hE1eF33SKw-5" value="1" style="text;html=1;align=center;verticalAlign=middle;resizable=0;points=[];autosize=1;strokeColor=none;fillColor=none;rounded=1;" parent="1" vertex="1">
          <mxGeometry x="-1190" y="490" width="30" height="30" as="geometry" />
        </mxCell>
        <mxCell id="VLrxsNaVs1hE1eF33SKw-6" value="" style="endArrow=none;html=1;edgeStyle=orthogonalEdgeStyle;rounded=1;entryX=0.5;entryY=0;entryDx=0;entryDy=0;exitX=0.5;exitY=1;exitDx=0;exitDy=0;" parent="1" source="VLrxsNaVs1hE1eF33SKw-2" target="VLrxsNaVs1hE1eF33SKw-3" edge="1">
          <mxGeometry relative="1" as="geometry">
            <mxPoint x="-1170" y="750" as="sourcePoint" />
            <mxPoint x="-1010" y="750" as="targetPoint" />
          </mxGeometry>
        </mxCell>
        <mxCell id="VLrxsNaVs1hE1eF33SKw-7" value="*" style="text;html=1;align=center;verticalAlign=middle;resizable=0;points=[];autosize=1;strokeColor=none;fillColor=none;rounded=1;arcSize=0;" parent="1" vertex="1">
          <mxGeometry x="-1425" y="329.75" width="30" height="30" as="geometry" />
        </mxCell>
        <mxCell id="VLrxsNaVs1hE1eF33SKw-8" value="" style="endArrow=none;html=1;edgeStyle=orthogonalEdgeStyle;rounded=1;exitX=0.193;exitY=1;exitDx=0;exitDy=0;entryX=0.75;entryY=0;entryDx=0;entryDy=0;exitPerimeter=0;" parent="1" source="VLrxsNaVs1hE1eF33SKw-156" target="VLrxsNaVs1hE1eF33SKw-97" edge="1">
          <mxGeometry relative="1" as="geometry">
            <mxPoint x="-1730" y="91" as="sourcePoint" />
            <mxPoint x="-1869.96" y="533" as="targetPoint" />
          </mxGeometry>
        </mxCell>
        <mxCell id="VLrxsNaVs1hE1eF33SKw-9" value="0..1" style="edgeLabel;resizable=0;html=1;align=right;verticalAlign=bottom;rounded=1;" parent="VLrxsNaVs1hE1eF33SKw-8" connectable="0" vertex="1">
          <mxGeometry x="1" relative="1" as="geometry">
            <mxPoint x="-10" y="-4" as="offset" />
          </mxGeometry>
        </mxCell>
        <mxCell id="VLrxsNaVs1hE1eF33SKw-10" value="1" style="text;html=1;align=center;verticalAlign=middle;resizable=0;points=[];autosize=1;strokeColor=none;fillColor=none;rounded=1;" parent="1" vertex="1">
          <mxGeometry x="-1185" y="675" width="30" height="30" as="geometry" />
        </mxCell>
        <mxCell id="VLrxsNaVs1hE1eF33SKw-11" value="*" style="text;html=1;align=center;verticalAlign=middle;resizable=0;points=[];autosize=1;strokeColor=none;fillColor=none;rounded=1;" parent="1" vertex="1">
          <mxGeometry x="-1285" y="705" width="30" height="30" as="geometry" />
        </mxCell>
        <mxCell id="VLrxsNaVs1hE1eF33SKw-12" value="&lt;p style=&quot;margin:0px;margin-top:4px;text-align:center;&quot;&gt;&lt;b&gt;Airport&lt;/b&gt;&lt;/p&gt;&lt;hr size=&quot;1&quot; style=&quot;border-style:solid;&quot;&gt;&lt;p style=&quot;margin:0px;margin-left:4px;&quot;&gt;+ Name&lt;/p&gt;&lt;hr size=&quot;1&quot; style=&quot;border-style:solid;&quot;&gt;&lt;p style=&quot;margin:0px;margin-left:4px;&quot;&gt;&lt;br&gt;&lt;/p&gt;" style="verticalAlign=top;align=left;overflow=fill;html=1;whiteSpace=wrap;fillColor=#dae8fc;rounded=1;gradientColor=#7ea6e0;strokeColor=#6c8ebf;" parent="1" vertex="1">
          <mxGeometry x="-966" y="159" width="160" height="50" as="geometry" />
        </mxCell>
        <mxCell id="VLrxsNaVs1hE1eF33SKw-13" value="&lt;p style=&quot;margin:0px;margin-top:4px;text-align:center;&quot;&gt;&lt;b&gt;Flight Number&lt;/b&gt;&lt;/p&gt;&lt;hr size=&quot;1&quot; style=&quot;border-style:solid;&quot;&gt;&lt;p style=&quot;margin:0px;margin-left:4px;&quot;&gt;+ Departure Time&lt;/p&gt;&lt;p style=&quot;margin:0px;margin-left:4px;&quot;&gt;+ Description&lt;/p&gt;&lt;p style=&quot;margin:0px;margin-left:4px;&quot;&gt;+ Type&amp;nbsp;&lt;/p&gt;&lt;p style=&quot;margin:0px;margin-left:4px;&quot;&gt;&lt;/p&gt;&lt;p style=&quot;margin:0px;margin-left:4px;&quot;&gt;&lt;br&gt;&lt;/p&gt;" style="verticalAlign=top;align=left;overflow=fill;html=1;whiteSpace=wrap;fillColor=#dae8fc;rounded=1;gradientColor=#7ea6e0;strokeColor=#6c8ebf;" parent="1" vertex="1">
          <mxGeometry x="-973" y="290" width="160" height="90" as="geometry" />
        </mxCell>
        <mxCell id="VLrxsNaVs1hE1eF33SKw-14" value="&lt;p style=&quot;margin:0px;margin-top:4px;text-align:center;&quot;&gt;&lt;b&gt;Flight&lt;/b&gt;&lt;/p&gt;&lt;hr size=&quot;1&quot; style=&quot;border-style:solid;&quot;&gt;&lt;p style=&quot;margin:0px;margin-left:4px;&quot;&gt;+ Boarding Time&lt;/p&gt;&lt;p style=&quot;margin:0px;margin-left:4px;&quot;&gt;+ Flight Date&lt;/p&gt;&lt;p style=&quot;margin:0px;margin-left:4px;&quot;&gt;+ Gate&amp;nbsp;&lt;/p&gt;&lt;p style=&quot;margin:0px;margin-left:4px;&quot;&gt;+ Check-in Counter&lt;/p&gt;&lt;hr size=&quot;1&quot; style=&quot;border-style:solid;&quot;&gt;&lt;p style=&quot;margin:0px;margin-left:4px;&quot;&gt;&lt;br&gt;&lt;/p&gt;" style="verticalAlign=top;align=left;overflow=fill;html=1;whiteSpace=wrap;fillColor=#dae8fc;rounded=1;gradientColor=#7ea6e0;strokeColor=#6c8ebf;" parent="1" vertex="1">
          <mxGeometry x="-973" y="476" width="160" height="90" as="geometry" />
        </mxCell>
        <mxCell id="VLrxsNaVs1hE1eF33SKw-16" value="" style="endArrow=none;html=1;edgeStyle=orthogonalEdgeStyle;rounded=1;exitX=0.5;exitY=1;exitDx=0;exitDy=0;entryX=0.5;entryY=0;entryDx=0;entryDy=0;" parent="1" source="VLrxsNaVs1hE1eF33SKw-13" target="VLrxsNaVs1hE1eF33SKw-14" edge="1">
          <mxGeometry relative="1" as="geometry">
            <mxPoint x="-1093" y="500" as="sourcePoint" />
            <mxPoint x="-933" y="500" as="targetPoint" />
          </mxGeometry>
        </mxCell>
        <mxCell id="VLrxsNaVs1hE1eF33SKw-17" value="" style="endArrow=none;html=1;edgeStyle=orthogonalEdgeStyle;rounded=1;exitX=1.011;exitY=0.374;exitDx=0;exitDy=0;exitPerimeter=0;entryX=0.146;entryY=1.036;entryDx=0;entryDy=0;entryPerimeter=0;" parent="1" source="VLrxsNaVs1hE1eF33SKw-2" target="VLrxsNaVs1hE1eF33SKw-14" edge="1">
          <mxGeometry relative="1" as="geometry">
            <mxPoint x="-960" y="550" as="sourcePoint" />
            <mxPoint x="-800" y="550" as="targetPoint" />
          </mxGeometry>
        </mxCell>
        <mxCell id="VLrxsNaVs1hE1eF33SKw-18" value="" style="endArrow=none;html=1;edgeStyle=orthogonalEdgeStyle;rounded=1;exitX=0.5;exitY=1;exitDx=0;exitDy=0;entryX=0.5;entryY=0;entryDx=0;entryDy=0;" parent="1" source="VLrxsNaVs1hE1eF33SKw-14" edge="1">
          <mxGeometry relative="1" as="geometry">
            <mxPoint x="-960" y="550" as="sourcePoint" />
            <mxPoint x="-893" y="643" as="targetPoint" />
          </mxGeometry>
        </mxCell>
        <mxCell id="VLrxsNaVs1hE1eF33SKw-19" value="1" style="text;html=1;align=center;verticalAlign=middle;resizable=0;points=[];autosize=1;strokeColor=none;fillColor=none;rounded=1;arcSize=36;" parent="1" vertex="1">
          <mxGeometry x="-950" y="209" width="30" height="30" as="geometry" />
        </mxCell>
        <mxCell id="VLrxsNaVs1hE1eF33SKw-20" value="1..*" style="text;html=1;align=center;verticalAlign=middle;resizable=0;points=[];autosize=1;strokeColor=none;fillColor=none;rounded=1;" parent="1" vertex="1">
          <mxGeometry x="-950" y="260" width="40" height="30" as="geometry" />
        </mxCell>
        <mxCell id="VLrxsNaVs1hE1eF33SKw-21" value="1" style="text;html=1;align=center;verticalAlign=middle;resizable=0;points=[];autosize=1;strokeColor=none;fillColor=none;rounded=1;" parent="1" vertex="1">
          <mxGeometry x="-868" y="209" width="30" height="30" as="geometry" />
        </mxCell>
        <mxCell id="VLrxsNaVs1hE1eF33SKw-22" value="1..*" style="text;html=1;align=center;verticalAlign=middle;resizable=0;points=[];autosize=1;strokeColor=none;fillColor=none;rounded=1;" parent="1" vertex="1">
          <mxGeometry x="-873" y="268" width="40" height="30" as="geometry" />
        </mxCell>
        <mxCell id="VLrxsNaVs1hE1eF33SKw-23" value="1" style="text;html=1;align=center;verticalAlign=middle;resizable=0;points=[];autosize=1;strokeColor=none;fillColor=none;rounded=1;" parent="1" vertex="1">
          <mxGeometry x="-925" y="378" width="30" height="30" as="geometry" />
        </mxCell>
        <mxCell id="VLrxsNaVs1hE1eF33SKw-24" value="*" style="text;html=1;align=center;verticalAlign=middle;resizable=0;points=[];autosize=1;strokeColor=none;fillColor=none;rounded=1;" parent="1" vertex="1">
          <mxGeometry x="-925" y="455" width="30" height="30" as="geometry" />
        </mxCell>
        <mxCell id="VLrxsNaVs1hE1eF33SKw-25" value="1" style="text;html=1;align=center;verticalAlign=middle;resizable=0;points=[];autosize=1;strokeColor=none;fillColor=none;rounded=1;" parent="1" vertex="1">
          <mxGeometry x="-980" y="570" width="30" height="30" as="geometry" />
        </mxCell>
        <mxCell id="VLrxsNaVs1hE1eF33SKw-26" value="*" style="text;html=1;align=center;verticalAlign=middle;resizable=0;points=[];autosize=1;strokeColor=none;fillColor=none;rounded=1;" parent="1" vertex="1">
          <mxGeometry x="-1080" y="595" width="30" height="30" as="geometry" />
        </mxCell>
        <mxCell id="VLrxsNaVs1hE1eF33SKw-27" value="0..1" style="text;html=1;align=center;verticalAlign=middle;resizable=0;points=[];autosize=1;strokeColor=none;fillColor=none;rounded=1;" parent="1" vertex="1">
          <mxGeometry x="-1085" y="659" width="40" height="30" as="geometry" />
        </mxCell>
        <mxCell id="VLrxsNaVs1hE1eF33SKw-28" value="0..1" style="text;html=1;align=center;verticalAlign=middle;resizable=0;points=[];autosize=1;strokeColor=none;fillColor=none;rounded=1;" parent="1" vertex="1">
          <mxGeometry x="-1008" y="663" width="40" height="30" as="geometry" />
        </mxCell>
        <mxCell id="VLrxsNaVs1hE1eF33SKw-29" value="1" style="text;html=1;align=center;verticalAlign=middle;resizable=0;points=[];autosize=1;strokeColor=none;fillColor=none;rounded=1;" parent="1" vertex="1">
          <mxGeometry x="-925" y="568" width="30" height="30" as="geometry" />
        </mxCell>
        <mxCell id="VLrxsNaVs1hE1eF33SKw-30" value="*" style="text;html=1;align=center;verticalAlign=middle;resizable=0;points=[];autosize=1;strokeColor=none;fillColor=none;rounded=1;" parent="1" vertex="1">
          <mxGeometry x="-920" y="621" width="30" height="30" as="geometry" />
        </mxCell>
        <mxCell id="VLrxsNaVs1hE1eF33SKw-31" value="&lt;p style=&quot;margin:0px;margin-top:4px;text-align:center;&quot;&gt;&lt;b&gt;Airplane&lt;/b&gt;&lt;/p&gt;&lt;hr size=&quot;1&quot; style=&quot;border-style:solid;&quot;&gt;&lt;p style=&quot;margin:0px;margin-left:4px;&quot;&gt;+ Registration Number&lt;/p&gt;&lt;p style=&quot;margin:0px;margin-left:4px;&quot;&gt;+ Begin of Operation&amp;nbsp;&lt;/p&gt;&lt;p style=&quot;margin:0px;margin-left:4px;&quot;&gt;+ Status&lt;/p&gt;&lt;hr size=&quot;1&quot; style=&quot;border-style:solid;&quot;&gt;&lt;p style=&quot;margin:0px;margin-left:4px;&quot;&gt;&lt;br&gt;&lt;/p&gt;" style="verticalAlign=top;align=left;overflow=fill;html=1;whiteSpace=wrap;fillColor=#dae8fc;rounded=1;gradientColor=#7ea6e0;strokeColor=#6c8ebf;" parent="1" vertex="1">
          <mxGeometry x="-759.5" y="150.87" width="160" height="80" as="geometry" />
        </mxCell>
        <mxCell id="VLrxsNaVs1hE1eF33SKw-32" value="&lt;p style=&quot;margin:0px;margin-top:4px;text-align:center;&quot;&gt;&lt;b&gt;Plane Model&lt;/b&gt;&lt;/p&gt;&lt;hr size=&quot;1&quot; style=&quot;border-style:solid;&quot;&gt;&lt;p style=&quot;margin:0px;margin-left:4px;&quot;&gt;+ Description&lt;/p&gt;&lt;p style=&quot;margin:0px;margin-left:4px;&quot;&gt;+ Graphic&lt;/p&gt;&lt;hr size=&quot;1&quot; style=&quot;border-style:solid;&quot;&gt;&lt;p style=&quot;margin:0px;margin-left:4px;&quot;&gt;&lt;br&gt;&lt;/p&gt;" style="verticalAlign=top;align=left;overflow=fill;html=1;whiteSpace=wrap;fillColor=#dae8fc;rounded=1;gradientColor=#7ea6e0;strokeColor=#6c8ebf;" parent="1" vertex="1">
          <mxGeometry x="-759.5" y="277.62" width="160" height="65" as="geometry" />
        </mxCell>
        <mxCell id="VLrxsNaVs1hE1eF33SKw-33" value="&lt;p style=&quot;margin:0px;margin-top:4px;text-align:center;&quot;&gt;&lt;b&gt;Seat&lt;/b&gt;&lt;/p&gt;&lt;hr size=&quot;1&quot; style=&quot;border-style:solid;&quot;&gt;&lt;p style=&quot;margin:0px;margin-left:4px;&quot;&gt;+ Size&lt;/p&gt;&lt;p style=&quot;margin:0px;margin-left:4px;&quot;&gt;+ Number&amp;nbsp;&lt;/p&gt;&lt;p style=&quot;margin:0px;margin-left:4px;&quot;&gt;+ Location&lt;/p&gt;&lt;hr size=&quot;1&quot; style=&quot;border-style:solid;&quot;&gt;&lt;p style=&quot;margin:0px;margin-left:4px;&quot;&gt;&lt;br&gt;&lt;/p&gt;" style="verticalAlign=top;align=left;overflow=fill;html=1;whiteSpace=wrap;fillColor=#dae8fc;rounded=1;gradientColor=#7ea6e0;strokeColor=#6c8ebf;" parent="1" vertex="1">
          <mxGeometry x="-759.5" y="402.87" width="160" height="78" as="geometry" />
        </mxCell>
        <mxCell id="VLrxsNaVs1hE1eF33SKw-34" value="" style="endArrow=none;html=1;edgeStyle=orthogonalEdgeStyle;rounded=1;exitX=0.5;exitY=0;exitDx=0;exitDy=0;entryX=0.5;entryY=1;entryDx=0;entryDy=0;" parent="1" source="VLrxsNaVs1hE1eF33SKw-32" target="VLrxsNaVs1hE1eF33SKw-31" edge="1">
          <mxGeometry relative="1" as="geometry">
            <mxPoint x="-820.5" y="322.87" as="sourcePoint" />
            <mxPoint x="-660.5" y="322.87" as="targetPoint" />
          </mxGeometry>
        </mxCell>
        <mxCell id="VLrxsNaVs1hE1eF33SKw-35" value="" style="endArrow=diamondThin;endFill=0;endSize=24;html=1;rounded=1;entryX=0.5;entryY=1;entryDx=0;entryDy=0;exitX=0.5;exitY=0;exitDx=0;exitDy=0;" parent="1" source="VLrxsNaVs1hE1eF33SKw-33" target="VLrxsNaVs1hE1eF33SKw-32" edge="1">
          <mxGeometry width="160" relative="1" as="geometry">
            <mxPoint x="-793.5" y="444.87" as="sourcePoint" />
            <mxPoint x="-633.5" y="444.87" as="targetPoint" />
          </mxGeometry>
        </mxCell>
        <mxCell id="VLrxsNaVs1hE1eF33SKw-36" value="" style="endArrow=none;html=1;edgeStyle=orthogonalEdgeStyle;rounded=1;exitX=0.75;exitY=0;exitDx=0;exitDy=0;" parent="1" edge="1">
          <mxGeometry relative="1" as="geometry">
            <mxPoint x="-853" y="643" as="sourcePoint" />
            <mxPoint x="-660" y="480" as="targetPoint" />
            <Array as="points">
              <mxPoint x="-853" y="610" />
              <mxPoint x="-662" y="610" />
              <mxPoint x="-662" y="480" />
            </Array>
          </mxGeometry>
        </mxCell>
        <mxCell id="VLrxsNaVs1hE1eF33SKw-39" value="0..1" style="text;html=1;align=center;verticalAlign=middle;resizable=0;points=[];autosize=1;strokeColor=none;fillColor=none;rounded=1;" parent="1" vertex="1">
          <mxGeometry x="-790" y="290.87" width="40" height="30" as="geometry" />
        </mxCell>
        <mxCell id="VLrxsNaVs1hE1eF33SKw-40" value="*" style="text;html=1;align=center;verticalAlign=middle;resizable=0;points=[];autosize=1;strokeColor=none;fillColor=none;rounded=1;" parent="1" vertex="1">
          <mxGeometry x="-704.5" y="230.87" width="23" height="26" as="geometry" />
        </mxCell>
        <mxCell id="VLrxsNaVs1hE1eF33SKw-41" value="1" style="text;html=1;align=center;verticalAlign=middle;resizable=0;points=[];autosize=1;strokeColor=none;fillColor=none;rounded=1;" parent="1" vertex="1">
          <mxGeometry x="-706.5" y="249.87" width="25" height="26" as="geometry" />
        </mxCell>
        <mxCell id="VLrxsNaVs1hE1eF33SKw-42" value="1" style="text;html=1;align=center;verticalAlign=middle;resizable=0;points=[];autosize=1;strokeColor=none;fillColor=none;rounded=1;" parent="1" vertex="1">
          <mxGeometry x="-711.5" y="368.87" width="25" height="26" as="geometry" />
        </mxCell>
        <mxCell id="VLrxsNaVs1hE1eF33SKw-43" value="*" style="text;html=1;align=center;verticalAlign=middle;resizable=0;points=[];autosize=1;strokeColor=none;fillColor=none;rounded=1;" parent="1" vertex="1">
          <mxGeometry x="-705.5" y="382.87" width="23" height="26" as="geometry" />
        </mxCell>
        <mxCell id="VLrxsNaVs1hE1eF33SKw-44" value="1" style="text;html=1;align=center;verticalAlign=middle;resizable=0;points=[];autosize=1;strokeColor=none;fillColor=none;rounded=1;arcSize=50;" parent="1" vertex="1">
          <mxGeometry x="-713" y="480.87" width="25" height="26" as="geometry" />
        </mxCell>
        <mxCell id="VLrxsNaVs1hE1eF33SKw-45" value="*" style="text;html=1;align=center;verticalAlign=middle;resizable=0;points=[];autosize=1;strokeColor=none;fillColor=none;rounded=1;arcSize=25;" parent="1" vertex="1">
          <mxGeometry x="-873" y="625" width="23" height="26" as="geometry" />
        </mxCell>
        <mxCell id="VLrxsNaVs1hE1eF33SKw-46" value="&lt;p style=&quot;margin:0px;margin-top:4px;text-align:center;&quot;&gt;&lt;b&gt;Boarding Pass&lt;/b&gt;&lt;/p&gt;&lt;hr size=&quot;1&quot; style=&quot;border-style:solid;&quot;&gt;&lt;p style=&quot;margin:0px;margin-left:4px;&quot;&gt;+ Id&amp;nbsp;&lt;/p&gt;&lt;p style=&quot;margin:0px;margin-left:4px;&quot;&gt;+ Gate&lt;/p&gt;&lt;hr size=&quot;1&quot; style=&quot;border-style:solid;&quot;&gt;&lt;p style=&quot;margin:0px;margin-left:4px;&quot;&gt;&lt;br&gt;&lt;/p&gt;" style="verticalAlign=top;align=left;overflow=fill;html=1;whiteSpace=wrap;fillColor=#f5f5f5;rounded=1;gradientColor=#b3b3b3;strokeColor=#666666;" parent="1" vertex="1">
          <mxGeometry x="-1490" y="595" width="160" height="70" as="geometry" />
        </mxCell>
        <mxCell id="VLrxsNaVs1hE1eF33SKw-47" style="edgeStyle=orthogonalEdgeStyle;rounded=1;orthogonalLoop=1;jettySize=auto;html=1;exitX=0.5;exitY=1;exitDx=0;exitDy=0;" parent="1" source="VLrxsNaVs1hE1eF33SKw-46" target="VLrxsNaVs1hE1eF33SKw-46" edge="1">
          <mxGeometry relative="1" as="geometry" />
        </mxCell>
        <mxCell id="VLrxsNaVs1hE1eF33SKw-48" value="&lt;p style=&quot;margin:0px;margin-top:4px;text-align:center;&quot;&gt;&lt;b&gt;Baggege Check-in&lt;/b&gt;&lt;/p&gt;&lt;hr size=&quot;1&quot; style=&quot;border-style:solid;&quot;&gt;&lt;p style=&quot;margin:0px;margin-left:4px;&quot;&gt;+ Id&lt;/p&gt;&lt;p style=&quot;margin:0px;margin-left:4px;&quot;&gt;+ Prohibited Items&lt;/p&gt;&lt;p style=&quot;margin:0px;margin-left:4px;&quot;&gt;+ Weigth&lt;/p&gt;&lt;hr size=&quot;1&quot; style=&quot;border-style:solid;&quot;&gt;&lt;p style=&quot;margin:0px;margin-left:4px;&quot;&gt;&lt;br&gt;&lt;/p&gt;&lt;p style=&quot;margin:0px;margin-left:4px;&quot;&gt;&lt;br&gt;&lt;/p&gt;" style="verticalAlign=top;align=left;overflow=fill;html=1;whiteSpace=wrap;fillColor=#f5f5f5;rounded=1;gradientColor=#b3b3b3;strokeColor=#666666;" parent="1" vertex="1">
          <mxGeometry x="-1565" y="715" width="160" height="80" as="geometry" />
        </mxCell>
        <mxCell id="VLrxsNaVs1hE1eF33SKw-49" value="" style="endArrow=none;html=1;edgeStyle=orthogonalEdgeStyle;rounded=1;exitX=1;exitY=0.5;exitDx=0;exitDy=0;entryX=0;entryY=0.5;entryDx=0;entryDy=0;" parent="1" source="VLrxsNaVs1hE1eF33SKw-46" target="VLrxsNaVs1hE1eF33SKw-2" edge="1">
          <mxGeometry relative="1" as="geometry">
            <mxPoint x="-1410" y="735" as="sourcePoint" />
            <mxPoint x="-1250" y="735" as="targetPoint" />
          </mxGeometry>
        </mxCell>
        <mxCell id="VLrxsNaVs1hE1eF33SKw-50" value="" style="endArrow=none;html=1;edgeStyle=orthogonalEdgeStyle;rounded=1;exitX=1.02;exitY=0.587;exitDx=0;exitDy=0;exitPerimeter=0;entryX=-0.013;entryY=0.616;entryDx=0;entryDy=0;entryPerimeter=0;" parent="1" source="VLrxsNaVs1hE1eF33SKw-48" target="VLrxsNaVs1hE1eF33SKw-3" edge="1">
          <mxGeometry relative="1" as="geometry">
            <mxPoint x="-1510" y="705" as="sourcePoint" />
            <mxPoint x="-1350" y="705" as="targetPoint" />
          </mxGeometry>
        </mxCell>
        <mxCell id="VLrxsNaVs1hE1eF33SKw-51" value="1" style="text;html=1;align=center;verticalAlign=middle;resizable=0;points=[];autosize=1;strokeColor=none;fillColor=none;rounded=1;" parent="1" vertex="1">
          <mxGeometry x="-1405" y="733" width="30" height="30" as="geometry" />
        </mxCell>
        <mxCell id="VLrxsNaVs1hE1eF33SKw-52" value="1" style="text;html=1;align=center;verticalAlign=middle;resizable=0;points=[];autosize=1;strokeColor=none;fillColor=none;rounded=1;" parent="1" vertex="1">
          <mxGeometry x="-1370" y="733" width="30" height="30" as="geometry" />
        </mxCell>
        <mxCell id="VLrxsNaVs1hE1eF33SKw-53" value="*" style="text;html=1;align=center;verticalAlign=middle;resizable=0;points=[];autosize=1;strokeColor=none;fillColor=none;rounded=1;" parent="1" vertex="1">
          <mxGeometry x="-1330" y="603" width="30" height="30" as="geometry" />
        </mxCell>
        <mxCell id="VLrxsNaVs1hE1eF33SKw-54" value="1" style="text;html=1;align=center;verticalAlign=middle;resizable=0;points=[];autosize=1;strokeColor=none;fillColor=none;rounded=1;" parent="1" vertex="1">
          <mxGeometry x="-1275" y="603" width="30" height="30" as="geometry" />
        </mxCell>
        <mxCell id="VLrxsNaVs1hE1eF33SKw-55" value="&lt;p style=&quot;margin:0px;margin-top:4px;text-align:center;&quot;&gt;&lt;b&gt;City&lt;/b&gt;&lt;/p&gt;&lt;hr size=&quot;1&quot; style=&quot;border-style:solid;&quot;&gt;&lt;p style=&quot;margin:0px;margin-left:4px;&quot;&gt;+ id&amp;nbsp;&lt;/p&gt;&lt;p style=&quot;margin:0px;margin-left:4px;&quot;&gt;+ Name&lt;/p&gt;&lt;hr size=&quot;1&quot; style=&quot;border-style:solid;&quot;&gt;&lt;p style=&quot;margin:0px;margin-left:4px;&quot;&gt;&lt;br&gt;&lt;/p&gt;" style="verticalAlign=top;align=left;overflow=fill;html=1;whiteSpace=wrap;fillColor=#f5f5f5;rounded=1;gradientColor=#b3b3b3;strokeColor=#666666;" parent="1" vertex="1">
          <mxGeometry x="-966" y="1" width="160" height="90" as="geometry" />
        </mxCell>
        <mxCell id="VLrxsNaVs1hE1eF33SKw-56" value="&lt;p style=&quot;margin:0px;margin-top:4px;text-align:center;&quot;&gt;&lt;b&gt;Country&lt;/b&gt;&lt;/p&gt;&lt;hr size=&quot;1&quot; style=&quot;border-style:solid;&quot;&gt;&lt;p style=&quot;margin:0px;margin-left:4px;&quot;&gt;+ id&lt;/p&gt;&lt;p style=&quot;margin:0px;margin-left:4px;&quot;&gt;+ name&lt;/p&gt;&lt;hr size=&quot;1&quot; style=&quot;border-style:solid;&quot;&gt;&lt;p style=&quot;margin:0px;margin-left:4px;&quot;&gt;&lt;br&gt;&lt;/p&gt;" style="verticalAlign=top;align=left;overflow=fill;html=1;whiteSpace=wrap;fillColor=#f5f5f5;rounded=1;gradientColor=#b3b3b3;strokeColor=#666666;" parent="1" vertex="1">
          <mxGeometry x="-716.5" y="-6.130000000000001" width="160" height="90" as="geometry" />
        </mxCell>
        <mxCell id="VLrxsNaVs1hE1eF33SKw-57" value="" style="endArrow=none;html=1;edgeStyle=orthogonalEdgeStyle;rounded=1;exitX=0.5;exitY=0;exitDx=0;exitDy=0;entryX=0.5;entryY=1;entryDx=0;entryDy=0;" parent="1" source="VLrxsNaVs1hE1eF33SKw-12" target="VLrxsNaVs1hE1eF33SKw-55" edge="1">
          <mxGeometry relative="1" as="geometry">
            <mxPoint x="-873" y="129" as="sourcePoint" />
            <mxPoint x="-713" y="129" as="targetPoint" />
          </mxGeometry>
        </mxCell>
        <mxCell id="VLrxsNaVs1hE1eF33SKw-58" value="*" style="text;html=1;align=center;verticalAlign=middle;resizable=0;points=[];autosize=1;strokeColor=none;fillColor=none;rounded=1;" parent="1" vertex="1">
          <mxGeometry x="-888" y="127" width="30" height="30" as="geometry" />
        </mxCell>
        <mxCell id="VLrxsNaVs1hE1eF33SKw-59" value="1" style="text;html=1;align=center;verticalAlign=middle;resizable=0;points=[];autosize=1;strokeColor=none;fillColor=none;rounded=1;" parent="1" vertex="1">
          <mxGeometry x="-888" y="89" width="30" height="30" as="geometry" />
        </mxCell>
        <mxCell id="VLrxsNaVs1hE1eF33SKw-60" value="*" style="text;html=1;align=center;verticalAlign=middle;resizable=0;points=[];autosize=1;strokeColor=none;fillColor=none;rounded=1;" parent="1" vertex="1">
          <mxGeometry x="-810" y="31" width="30" height="30" as="geometry" />
        </mxCell>
        <mxCell id="VLrxsNaVs1hE1eF33SKw-61" value="1" style="text;html=1;align=center;verticalAlign=middle;resizable=0;points=[];autosize=1;strokeColor=none;fillColor=none;rounded=1;" parent="1" vertex="1">
          <mxGeometry x="-741.5" y="31.739999999999995" width="30" height="30" as="geometry" />
        </mxCell>
        <mxCell id="VLrxsNaVs1hE1eF33SKw-62" value="&lt;p style=&quot;margin:0px;margin-top:4px;text-align:center;&quot;&gt;&lt;b&gt;Payment Type&lt;/b&gt;&lt;/p&gt;&lt;hr size=&quot;1&quot; style=&quot;border-style:solid;&quot;&gt;&lt;p style=&quot;margin:0px;margin-left:4px;&quot;&gt;+ id&lt;/p&gt;&lt;p style=&quot;margin:0px;margin-left:4px;&quot;&gt;+ Name&lt;/p&gt;&lt;p style=&quot;margin:0px;margin-left:4px;&quot;&gt;&lt;br&gt;&lt;/p&gt;&lt;hr size=&quot;1&quot; style=&quot;border-style:solid;&quot;&gt;&lt;p style=&quot;margin:0px;margin-left:4px;&quot;&gt;&lt;br&gt;&lt;/p&gt;" style="verticalAlign=top;align=left;overflow=fill;html=1;whiteSpace=wrap;fillColor=#f5f5f5;rounded=1;gradientColor=#b3b3b3;strokeColor=#666666;" parent="1" vertex="1">
          <mxGeometry x="-1600" y="48" width="160" height="70" as="geometry" />
        </mxCell>
        <mxCell id="VLrxsNaVs1hE1eF33SKw-63" value="&lt;p style=&quot;margin:0px;margin-top:4px;text-align:center;&quot;&gt;&lt;b&gt;Reserve&lt;/b&gt;&lt;/p&gt;&lt;hr size=&quot;1&quot; style=&quot;border-style:solid;&quot;&gt;&lt;p style=&quot;margin:0px;margin-left:4px;&quot;&gt;+ id&amp;nbsp;&lt;/p&gt;&lt;p style=&quot;margin:0px;margin-left:4px;&quot;&gt;+ State&lt;/p&gt;&lt;p style=&quot;margin:0px;margin-left:4px;&quot;&gt;+ Reservation Date&lt;/p&gt;&lt;p style=&quot;margin:0px;margin-left:4px;&quot;&gt;&lt;br&gt;&lt;/p&gt;&lt;p style=&quot;margin:0px;margin-left:4px;&quot;&gt;&lt;br&gt;&lt;/p&gt;" style="verticalAlign=top;align=left;overflow=fill;html=1;whiteSpace=wrap;fillColor=#f5f5f5;rounded=1;gradientColor=#b3b3b3;strokeColor=#666666;" parent="1" vertex="1">
          <mxGeometry x="-1500" y="354.63" width="160" height="83" as="geometry" />
        </mxCell>
        <mxCell id="VLrxsNaVs1hE1eF33SKw-64" value="&lt;p style=&quot;margin:0px;margin-top:4px;text-align:center;&quot;&gt;&lt;b&gt;Cancellation&lt;/b&gt;&lt;/p&gt;&lt;hr size=&quot;1&quot; style=&quot;border-style:solid;&quot;&gt;&lt;p style=&quot;margin:0px;margin-left:4px;&quot;&gt;+ id&amp;nbsp;&lt;/p&gt;&lt;p style=&quot;margin:0px;margin-left:4px;&quot;&gt;+ Reason&lt;/p&gt;&lt;p style=&quot;margin:0px;margin-left:4px;&quot;&gt;+ Cancellation Date&lt;/p&gt;&lt;p style=&quot;margin:0px;margin-left:4px;&quot;&gt;+ Penalty&lt;/p&gt;" style="verticalAlign=top;align=left;overflow=fill;html=1;whiteSpace=wrap;fillColor=#f5f5f5;rounded=1;gradientColor=#b3b3b3;strokeColor=#666666;" parent="1" vertex="1">
          <mxGeometry x="-1305" y="266" width="160" height="90" as="geometry" />
        </mxCell>
        <mxCell id="VLrxsNaVs1hE1eF33SKw-65" value="&lt;p style=&quot;margin:0px;margin-top:4px;text-align:center;&quot;&gt;&lt;b&gt;Payment&lt;/b&gt;&lt;/p&gt;&lt;hr size=&quot;1&quot; style=&quot;border-style:solid;&quot;&gt;&lt;p style=&quot;margin:0px;margin-left:4px;&quot;&gt;+ id&lt;/p&gt;&lt;p style=&quot;margin:0px;margin-left:4px;&quot;&gt;+ Currency&amp;nbsp;&lt;/p&gt;&lt;p style=&quot;margin:0px;margin-left:4px;&quot;&gt;+ Amount&lt;/p&gt;&lt;p style=&quot;margin:0px;margin-left:4px;&quot;&gt;+ Date&lt;/p&gt;" style="verticalAlign=top;align=left;overflow=fill;html=1;whiteSpace=wrap;fillColor=#f5f5f5;rounded=1;gradientColor=#b3b3b3;strokeColor=#666666;" parent="1" vertex="1">
          <mxGeometry x="-1590" y="180" width="160" height="98" as="geometry" />
        </mxCell>
        <mxCell id="VLrxsNaVs1hE1eF33SKw-66" value="&lt;p style=&quot;margin:0px;margin-top:4px;text-align:center;&quot;&gt;&lt;b&gt;Confirmation&lt;/b&gt;&lt;/p&gt;&lt;hr size=&quot;1&quot; style=&quot;border-style:solid;&quot;&gt;&lt;p style=&quot;margin:0px;margin-left:4px;&quot;&gt;+ id&lt;/p&gt;&lt;p style=&quot;margin:0px;margin-left:4px;&quot;&gt;+ Date&lt;/p&gt;&lt;p style=&quot;margin:0px;margin-left:4px;&quot;&gt;&lt;br&gt;&lt;/p&gt;" style="verticalAlign=top;align=left;overflow=fill;html=1;whiteSpace=wrap;fillColor=#f5f5f5;rounded=1;gradientColor=#b3b3b3;strokeColor=#666666;" parent="1" vertex="1">
          <mxGeometry x="-1410" y="180" width="160" height="62" as="geometry" />
        </mxCell>
        <mxCell id="VLrxsNaVs1hE1eF33SKw-67" value="" style="endArrow=none;html=1;edgeStyle=orthogonalEdgeStyle;rounded=1;exitX=1.005;exitY=0.578;exitDx=0;exitDy=0;exitPerimeter=0;entryX=-0.006;entryY=0.644;entryDx=0;entryDy=0;entryPerimeter=0;" parent="1" source="VLrxsNaVs1hE1eF33SKw-63" target="VLrxsNaVs1hE1eF33SKw-1" edge="1">
          <mxGeometry relative="1" as="geometry">
            <mxPoint x="-1320" y="490" as="sourcePoint" />
            <mxPoint x="-1220" y="480" as="targetPoint" />
          </mxGeometry>
        </mxCell>
        <mxCell id="VLrxsNaVs1hE1eF33SKw-68" value="" style="endArrow=none;html=1;edgeStyle=orthogonalEdgeStyle;rounded=1;exitX=1;exitY=0.25;exitDx=0;exitDy=0;entryX=0.5;entryY=1;entryDx=0;entryDy=0;" parent="1" source="VLrxsNaVs1hE1eF33SKw-63" target="VLrxsNaVs1hE1eF33SKw-64" edge="1">
          <mxGeometry relative="1" as="geometry">
            <mxPoint x="-1400" y="324.38" as="sourcePoint" />
            <mxPoint x="-1240" y="324.38" as="targetPoint" />
          </mxGeometry>
        </mxCell>
        <mxCell id="VLrxsNaVs1hE1eF33SKw-69" value="1" style="text;html=1;align=center;verticalAlign=middle;resizable=0;points=[];autosize=1;strokeColor=none;fillColor=none;rounded=1;" parent="1" vertex="1">
          <mxGeometry x="-1345" y="378" width="30" height="30" as="geometry" />
        </mxCell>
        <mxCell id="VLrxsNaVs1hE1eF33SKw-70" value="1..*" style="text;html=1;align=center;verticalAlign=middle;resizable=0;points=[];autosize=1;strokeColor=none;fillColor=none;rounded=1;" parent="1" vertex="1">
          <mxGeometry x="-1275" y="417.75" width="40" height="30" as="geometry" />
        </mxCell>
        <mxCell id="VLrxsNaVs1hE1eF33SKw-71" value="1" style="text;html=1;align=center;verticalAlign=middle;resizable=0;points=[];autosize=1;strokeColor=none;fillColor=none;rounded=1;" parent="1" vertex="1">
          <mxGeometry x="-1335" y="352" width="30" height="30" as="geometry" />
        </mxCell>
        <mxCell id="VLrxsNaVs1hE1eF33SKw-72" value="0..1" style="text;html=1;align=center;verticalAlign=middle;resizable=0;points=[];autosize=1;strokeColor=none;fillColor=none;rounded=1;" parent="1" vertex="1">
          <mxGeometry x="-1225" y="359.75" width="40" height="30" as="geometry" />
        </mxCell>
        <mxCell id="VLrxsNaVs1hE1eF33SKw-73" value="&lt;p style=&quot;margin:0px;margin-top:4px;text-align:center;&quot;&gt;&lt;b&gt;Category&lt;/b&gt;&lt;/p&gt;&lt;hr size=&quot;1&quot; style=&quot;border-style:solid;&quot;&gt;&lt;p style=&quot;margin:0px;margin-left:4px;&quot;&gt;+ id&amp;nbsp;&lt;/p&gt;&lt;p style=&quot;margin:0px;margin-left:4px;&quot;&gt;+ Name&lt;/p&gt;" style="verticalAlign=top;align=left;overflow=fill;html=1;whiteSpace=wrap;fillColor=#f5f5f5;rounded=1;gradientColor=#b3b3b3;strokeColor=#666666;" parent="1" vertex="1">
          <mxGeometry x="-1485" y="466" width="160" height="64" as="geometry" />
        </mxCell>
        <mxCell id="VLrxsNaVs1hE1eF33SKw-74" value="" style="endArrow=none;html=1;edgeStyle=orthogonalEdgeStyle;rounded=1;exitX=1.005;exitY=0.588;exitDx=0;exitDy=0;exitPerimeter=0;entryX=0;entryY=0.75;entryDx=0;entryDy=0;" parent="1" source="VLrxsNaVs1hE1eF33SKw-73" target="VLrxsNaVs1hE1eF33SKw-1" edge="1">
          <mxGeometry relative="1" as="geometry">
            <mxPoint x="-1305" y="500" as="sourcePoint" />
            <mxPoint x="-1230" y="470" as="targetPoint" />
          </mxGeometry>
        </mxCell>
        <mxCell id="VLrxsNaVs1hE1eF33SKw-75" value="1" style="text;html=1;align=center;verticalAlign=middle;resizable=0;points=[];autosize=1;strokeColor=none;fillColor=none;rounded=1;" parent="1" vertex="1">
          <mxGeometry x="-1330" y="478" width="30" height="30" as="geometry" />
        </mxCell>
        <mxCell id="VLrxsNaVs1hE1eF33SKw-76" value="1..*" style="text;html=1;align=center;verticalAlign=middle;resizable=0;points=[];autosize=1;strokeColor=none;fillColor=none;rounded=1;" parent="1" vertex="1">
          <mxGeometry x="-1275" y="452" width="40" height="30" as="geometry" />
        </mxCell>
        <mxCell id="VLrxsNaVs1hE1eF33SKw-77" value="1" style="text;html=1;align=center;verticalAlign=middle;resizable=0;points=[];autosize=1;strokeColor=none;fillColor=none;rounded=1;" parent="1" vertex="1">
          <mxGeometry x="-1395" y="329.75" width="30" height="30" as="geometry" />
        </mxCell>
        <mxCell id="VLrxsNaVs1hE1eF33SKw-78" value="0..1" style="text;html=1;align=center;verticalAlign=middle;resizable=0;points=[];autosize=1;strokeColor=none;fillColor=none;rounded=1;" parent="1" vertex="1">
          <mxGeometry x="-1375" y="242" width="40" height="30" as="geometry" />
        </mxCell>
        <mxCell id="VLrxsNaVs1hE1eF33SKw-79" value="1" style="text;html=1;align=center;verticalAlign=middle;resizable=0;points=[];autosize=1;strokeColor=none;fillColor=none;rounded=1;" parent="1" vertex="1">
          <mxGeometry x="-1540" y="108.87" width="30" height="30" as="geometry" />
        </mxCell>
        <mxCell id="VLrxsNaVs1hE1eF33SKw-80" value="*" style="text;html=1;align=center;verticalAlign=middle;resizable=0;points=[];autosize=1;strokeColor=none;fillColor=none;rounded=1;arcSize=49;" parent="1" vertex="1">
          <mxGeometry x="-1540" y="160" width="30" height="30" as="geometry" />
        </mxCell>
        <mxCell id="VLrxsNaVs1hE1eF33SKw-81" value="&lt;p style=&quot;margin:0px;margin-top:4px;text-align:center;&quot;&gt;&lt;b&gt;Type Assignment&lt;/b&gt;&lt;/p&gt;&lt;hr size=&quot;1&quot; style=&quot;border-style:solid;&quot;&gt;&lt;p style=&quot;margin:0px;margin-left:4px;&quot;&gt;+ id&amp;nbsp;&lt;/p&gt;&lt;p style=&quot;margin:0px;margin-left:4px;&quot;&gt;+ Date&lt;/p&gt;&lt;p style=&quot;margin:0px;margin-left:4px;&quot;&gt;&lt;br&gt;&lt;/p&gt;" style="verticalAlign=top;align=left;overflow=fill;html=1;whiteSpace=wrap;fillColor=#f5f5f5;rounded=1;gradientColor=#b3b3b3;strokeColor=#666666;" parent="1" vertex="1">
          <mxGeometry x="-2030" y="239.75" width="160" height="70" as="geometry" />
        </mxCell>
        <mxCell id="VLrxsNaVs1hE1eF33SKw-82" value="*" style="text;html=1;align=center;verticalAlign=middle;resizable=0;points=[];autosize=1;strokeColor=none;fillColor=none;rounded=1;" parent="1" vertex="1">
          <mxGeometry x="-1920" y="403" width="30" height="30" as="geometry" />
        </mxCell>
        <mxCell id="VLrxsNaVs1hE1eF33SKw-83" value="&lt;p style=&quot;margin:0px;margin-top:4px;text-align:center;&quot;&gt;&lt;b style=&quot;background-color: initial;&quot;&gt;Custumer Type&lt;/b&gt;&lt;/p&gt;&lt;hr size=&quot;1&quot; style=&quot;border-style:solid;&quot;&gt;&lt;p style=&quot;margin:0px;margin-left:4px;&quot;&gt;+ id&amp;nbsp;&lt;/p&gt;&lt;p style=&quot;margin:0px;margin-left:4px;&quot;&gt;+ Name&amp;nbsp;&lt;/p&gt;&lt;p style=&quot;margin:0px;margin-left:4px;&quot;&gt;+ Description&lt;/p&gt;" style="verticalAlign=top;align=left;overflow=fill;html=1;whiteSpace=wrap;fillColor=#f5f5f5;rounded=1;gradientColor=#b3b3b3;strokeColor=#666666;" parent="1" vertex="1">
          <mxGeometry x="-2030" y="91.75" width="160" height="80" as="geometry" />
        </mxCell>
        <mxCell id="VLrxsNaVs1hE1eF33SKw-84" value="" style="endArrow=none;html=1;edgeStyle=orthogonalEdgeStyle;rounded=1;exitX=0.5;exitY=0;exitDx=0;exitDy=0;entryX=0.5;entryY=1;entryDx=0;entryDy=0;" parent="1" source="VLrxsNaVs1hE1eF33SKw-81" target="VLrxsNaVs1hE1eF33SKw-83" edge="1">
          <mxGeometry relative="1" as="geometry">
            <mxPoint x="-1960" y="211.75" as="sourcePoint" />
            <mxPoint x="-1800" y="211.75" as="targetPoint" />
          </mxGeometry>
        </mxCell>
        <mxCell id="VLrxsNaVs1hE1eF33SKw-85" value="*" style="text;html=1;align=center;verticalAlign=middle;resizable=0;points=[];autosize=1;strokeColor=none;fillColor=none;rounded=1;" parent="1" vertex="1">
          <mxGeometry x="-1975" y="209.75" width="30" height="30" as="geometry" />
        </mxCell>
        <mxCell id="VLrxsNaVs1hE1eF33SKw-86" value="1" style="text;html=1;align=center;verticalAlign=middle;resizable=0;points=[];autosize=1;strokeColor=none;fillColor=none;rounded=1;" parent="1" vertex="1">
          <mxGeometry x="-1975" y="169.75" width="30" height="30" as="geometry" />
        </mxCell>
        <mxCell id="VLrxsNaVs1hE1eF33SKw-87" value="&lt;p style=&quot;margin:0px;margin-top:4px;text-align:center;&quot;&gt;&lt;b&gt;Document&lt;/b&gt;&lt;/p&gt;&lt;hr size=&quot;1&quot; style=&quot;border-style:solid;&quot;&gt;&lt;p style=&quot;margin:0px;margin-left:4px;&quot;&gt;+ ci&amp;nbsp;&lt;/p&gt;&lt;p style=&quot;margin:0px;margin-left:4px;&quot;&gt;+ Date of Issue&lt;/p&gt;&lt;p style=&quot;margin:0px;margin-left:4px;&quot;&gt;+ Valid Date&lt;/p&gt;&lt;p style=&quot;margin:0px;margin-left:4px;&quot;&gt;&lt;br&gt;&lt;/p&gt;" style="verticalAlign=top;align=left;overflow=fill;html=1;whiteSpace=wrap;fillColor=#f5f5f5;rounded=1;gradientColor=#b3b3b3;strokeColor=#666666;" parent="1" vertex="1">
          <mxGeometry x="-1220" y="28.870000000000005" width="160" height="80" as="geometry" />
        </mxCell>
        <mxCell id="VLrxsNaVs1hE1eF33SKw-88" value="" style="endArrow=none;html=1;edgeStyle=orthogonalEdgeStyle;rounded=1;exitX=0.941;exitY=0;exitDx=0;exitDy=0;exitPerimeter=0;" parent="1" source="VLrxsNaVs1hE1eF33SKw-1" edge="1">
          <mxGeometry relative="1" as="geometry">
            <mxPoint x="-1300" y="570" as="sourcePoint" />
            <mxPoint x="-1110" y="110" as="targetPoint" />
          </mxGeometry>
        </mxCell>
        <mxCell id="VLrxsNaVs1hE1eF33SKw-89" value="&lt;p style=&quot;margin:0px;margin-top:4px;text-align:center;&quot;&gt;&lt;b&gt;Type Document&lt;/b&gt;&lt;/p&gt;&lt;hr size=&quot;1&quot; style=&quot;border-style:solid;&quot;&gt;&lt;p style=&quot;margin:0px;margin-left:4px;&quot;&gt;+ id&lt;/p&gt;&lt;p style=&quot;margin:0px;margin-left:4px;&quot;&gt;+ Name&lt;/p&gt;" style="verticalAlign=top;align=left;overflow=fill;html=1;whiteSpace=wrap;fillColor=#f5f5f5;rounded=1;gradientColor=#b3b3b3;strokeColor=#666666;" parent="1" vertex="1">
          <mxGeometry x="-1220" y="-100" width="160" height="70" as="geometry" />
        </mxCell>
        <mxCell id="VLrxsNaVs1hE1eF33SKw-90" value="*" style="text;html=1;align=center;verticalAlign=middle;resizable=0;points=[];autosize=1;strokeColor=none;fillColor=none;rounded=1;" parent="1" vertex="1">
          <mxGeometry x="-1165" y="10.000000000000005" width="30" height="30" as="geometry" />
        </mxCell>
        <mxCell id="VLrxsNaVs1hE1eF33SKw-91" value="1" style="text;html=1;align=center;verticalAlign=middle;resizable=0;points=[];autosize=1;strokeColor=none;fillColor=none;rounded=1;" parent="1" vertex="1">
          <mxGeometry x="-1165" y="-36.129999999999995" width="30" height="30" as="geometry" />
        </mxCell>
        <mxCell id="VLrxsNaVs1hE1eF33SKw-92" value="*..1" style="text;html=1;align=center;verticalAlign=middle;resizable=0;points=[];autosize=1;strokeColor=none;fillColor=none;rounded=1;" parent="1" vertex="1">
          <mxGeometry x="-1090" y="380" width="40" height="30" as="geometry" />
        </mxCell>
        <mxCell id="VLrxsNaVs1hE1eF33SKw-93" value="1" style="text;html=1;align=center;verticalAlign=middle;resizable=0;points=[];autosize=1;strokeColor=none;fillColor=none;rounded=1;arcSize=0;" parent="1" vertex="1">
          <mxGeometry x="-1110" y="110" width="30" height="30" as="geometry" />
        </mxCell>
        <mxCell id="VLrxsNaVs1hE1eF33SKw-94" value="&lt;p style=&quot;margin:0px;margin-top:4px;text-align:center;&quot;&gt;&lt;b style=&quot;background-color: initial;&quot;&gt;Flight&amp;nbsp;&lt;/b&gt;&lt;b&gt;Cancellation&amp;nbsp;&lt;/b&gt;&lt;/p&gt;&lt;hr size=&quot;1&quot; style=&quot;border-style:solid;&quot;&gt;&lt;p style=&quot;margin:0px;margin-left:4px;&quot;&gt;+ id&amp;nbsp;&lt;/p&gt;&lt;p style=&quot;margin:0px;margin-left:4px;&quot;&gt;+ Reason&amp;nbsp;&lt;/p&gt;&lt;p style=&quot;margin:0px;margin-left:4px;&quot;&gt;+ Cancellation Date&lt;/p&gt;" style="verticalAlign=top;align=left;overflow=fill;html=1;whiteSpace=wrap;fillColor=#f5f5f5;rounded=1;gradientColor=#b3b3b3;strokeColor=#666666;" parent="1" vertex="1">
          <mxGeometry x="-578" y="582.87" width="160" height="80" as="geometry" />
        </mxCell>
        <mxCell id="VLrxsNaVs1hE1eF33SKw-95" value="0..1" style="text;html=1;align=center;verticalAlign=middle;resizable=0;points=[];autosize=1;strokeColor=none;fillColor=none;rounded=1;arcSize=0;" parent="1" vertex="1">
          <mxGeometry x="-623" y="600.87" width="40" height="30" as="geometry" />
        </mxCell>
        <mxCell id="VLrxsNaVs1hE1eF33SKw-96" value="1..*" style="text;html=1;align=center;verticalAlign=middle;resizable=0;points=[];autosize=1;strokeColor=none;fillColor=none;rounded=1;" parent="1" vertex="1">
          <mxGeometry x="-820" y="545" width="40" height="30" as="geometry" />
        </mxCell>
        <mxCell id="VLrxsNaVs1hE1eF33SKw-97" value="&lt;p style=&quot;margin:0px;margin-top:4px;text-align:center;&quot;&gt;&lt;b&gt;Frequent Flyer Card&lt;/b&gt;&lt;/p&gt;&lt;hr size=&quot;1&quot; style=&quot;border-style:solid;&quot;&gt;&lt;p style=&quot;margin:0px;margin-left:4px;&quot;&gt;+ FFC Number&lt;/p&gt;&lt;p style=&quot;margin:0px;margin-left:4px;&quot;&gt;+ Miles&amp;nbsp;&lt;/p&gt;&lt;p style=&quot;margin:0px;margin-left:4px;&quot;&gt;+ MealCode&lt;/p&gt;&lt;hr size=&quot;1&quot; style=&quot;border-style:solid;&quot;&gt;&lt;p style=&quot;margin:0px;margin-left:4px;&quot;&gt;&lt;br&gt;&lt;/p&gt;" style="verticalAlign=top;align=left;overflow=fill;html=1;whiteSpace=wrap;movable=1;resizable=1;rotatable=1;deletable=1;editable=1;locked=0;connectable=1;gradientDirection=north;rounded=1;fillColor=#dae8fc;strokeColor=#6c8ebf;gradientColor=#7ea6e0;" parent="1" vertex="1">
          <mxGeometry x="-2060" y="465" width="160" height="80" as="geometry" />
        </mxCell>
        <mxCell id="VLrxsNaVs1hE1eF33SKw-98" value="" style="endArrow=none;html=1;rounded=1;exitX=0;exitY=0.75;exitDx=0;exitDy=0;entryX=0.238;entryY=0.919;entryDx=0;entryDy=0;entryPerimeter=0;" parent="1" target="VLrxsNaVs1hE1eF33SKw-60" edge="1" source="VLrxsNaVs1hE1eF33SKw-56">
          <mxGeometry relative="1" as="geometry">
            <mxPoint x="-886" y="-71" as="sourcePoint" />
            <mxPoint x="-800" y="57" as="targetPoint" />
            <Array as="points" />
          </mxGeometry>
        </mxCell>
        <mxCell id="VLrxsNaVs1hE1eF33SKw-99" value="" style="endArrow=none;html=1;rounded=1;entryX=0.859;entryY=0.018;entryDx=0;entryDy=0;entryPerimeter=0;exitX=0.078;exitY=0.096;exitDx=0;exitDy=0;exitPerimeter=0;" parent="1" source="VLrxsNaVs1hE1eF33SKw-27" target="VLrxsNaVs1hE1eF33SKw-28" edge="1">
          <mxGeometry relative="1" as="geometry">
            <mxPoint x="-1220" y="665" as="sourcePoint" />
            <mxPoint x="-1060" y="665" as="targetPoint" />
          </mxGeometry>
        </mxCell>
        <mxCell id="VLrxsNaVs1hE1eF33SKw-100" value="Airline" style="swimlane;fontStyle=0;childLayout=stackLayout;horizontal=1;startSize=26;fillColor=#f5f5f5;horizontalStack=0;resizeParent=1;resizeParentMax=0;resizeLast=0;collapsible=1;marginBottom=0;whiteSpace=wrap;html=1;rounded=1;gradientColor=#b3b3b3;strokeColor=#666666;" parent="1" vertex="1">
          <mxGeometry x="-588" y="464.87" width="140" height="104" as="geometry" />
        </mxCell>
        <mxCell id="VLrxsNaVs1hE1eF33SKw-101" value="+ id" style="text;strokeColor=none;fillColor=none;align=left;verticalAlign=top;spacingLeft=4;spacingRight=4;overflow=hidden;rotatable=0;points=[[0,0.5],[1,0.5]];portConstraint=eastwest;whiteSpace=wrap;html=1;rounded=1;" parent="VLrxsNaVs1hE1eF33SKw-100" vertex="1">
          <mxGeometry y="26" width="140" height="26" as="geometry" />
        </mxCell>
        <mxCell id="VLrxsNaVs1hE1eF33SKw-102" value="+ Date" style="text;strokeColor=none;fillColor=none;align=left;verticalAlign=top;spacingLeft=4;spacingRight=4;overflow=hidden;rotatable=0;points=[[0,0.5],[1,0.5]];portConstraint=eastwest;whiteSpace=wrap;html=1;rounded=1;" parent="VLrxsNaVs1hE1eF33SKw-100" vertex="1">
          <mxGeometry y="52" width="140" height="26" as="geometry" />
        </mxCell>
        <mxCell id="VLrxsNaVs1hE1eF33SKw-103" value="+ field: type" style="text;strokeColor=none;fillColor=none;align=left;verticalAlign=top;spacingLeft=4;spacingRight=4;overflow=hidden;rotatable=0;points=[[0,0.5],[1,0.5]];portConstraint=eastwest;whiteSpace=wrap;html=1;rounded=1;" parent="VLrxsNaVs1hE1eF33SKw-100" vertex="1">
          <mxGeometry y="78" width="140" height="26" as="geometry" />
        </mxCell>
        <mxCell id="VLrxsNaVs1hE1eF33SKw-107" value="Fligth Reprogrammings" style="swimlane;fontStyle=0;childLayout=stackLayout;horizontal=1;startSize=26;fillColor=#f5f5f5;horizontalStack=0;resizeParent=1;resizeParentMax=0;resizeLast=0;collapsible=1;marginBottom=0;whiteSpace=wrap;html=1;rounded=1;gradientColor=#b3b3b3;strokeColor=#666666;" parent="1" vertex="1">
          <mxGeometry x="-335" y="550.87" width="165" height="130" as="geometry" />
        </mxCell>
        <mxCell id="VLrxsNaVs1hE1eF33SKw-108" value="+ id" style="text;strokeColor=none;fillColor=none;align=left;verticalAlign=top;spacingLeft=4;spacingRight=4;overflow=hidden;rotatable=0;points=[[0,0.5],[1,0.5]];portConstraint=eastwest;whiteSpace=wrap;html=1;rounded=1;" parent="VLrxsNaVs1hE1eF33SKw-107" vertex="1">
          <mxGeometry y="26" width="165" height="26" as="geometry" />
        </mxCell>
        <mxCell id="VLrxsNaVs1hE1eF33SKw-109" value="+ NewDepartureTime" style="text;strokeColor=none;fillColor=none;align=left;verticalAlign=top;spacingLeft=4;spacingRight=4;overflow=hidden;rotatable=0;points=[[0,0.5],[1,0.5]];portConstraint=eastwest;whiteSpace=wrap;html=1;rounded=1;" parent="VLrxsNaVs1hE1eF33SKw-107" vertex="1">
          <mxGeometry y="52" width="165" height="26" as="geometry" />
        </mxCell>
        <mxCell id="VLrxsNaVs1hE1eF33SKw-110" value="+ NewArrivalTime" style="text;strokeColor=none;fillColor=none;align=left;verticalAlign=top;spacingLeft=4;spacingRight=4;overflow=hidden;rotatable=0;points=[[0,0.5],[1,0.5]];portConstraint=eastwest;whiteSpace=wrap;html=1;rounded=1;" parent="VLrxsNaVs1hE1eF33SKw-107" vertex="1">
          <mxGeometry y="78" width="165" height="26" as="geometry" />
        </mxCell>
        <mxCell id="VLrxsNaVs1hE1eF33SKw-111" value="+ Reason" style="text;strokeColor=none;fillColor=none;align=left;verticalAlign=top;spacingLeft=4;spacingRight=4;overflow=hidden;rotatable=0;points=[[0,0.5],[1,0.5]];portConstraint=eastwest;whiteSpace=wrap;html=1;rounded=1;" parent="VLrxsNaVs1hE1eF33SKw-107" vertex="1">
          <mxGeometry y="104" width="165" height="26" as="geometry" />
        </mxCell>
        <mxCell id="VLrxsNaVs1hE1eF33SKw-112" value="" style="endArrow=none;html=1;rounded=1;curved=0;exitX=1;exitY=0.75;exitDx=0;exitDy=0;" parent="1" source="VLrxsNaVs1hE1eF33SKw-14" target="VLrxsNaVs1hE1eF33SKw-94" edge="1">
          <mxGeometry relative="1" as="geometry">
            <mxPoint x="-551.2600000000002" y="651.4139999999998" as="sourcePoint" />
            <mxPoint x="-640" y="520" as="targetPoint" />
            <Array as="points">
              <mxPoint x="-640" y="544" />
              <mxPoint x="-640" y="620" />
            </Array>
          </mxGeometry>
        </mxCell>
        <mxCell id="VLrxsNaVs1hE1eF33SKw-113" value="Crew Members" style="swimlane;fontStyle=0;childLayout=stackLayout;horizontal=1;startSize=26;fillColor=#f5f5f5;horizontalStack=0;resizeParent=1;resizeParentMax=0;resizeLast=0;collapsible=1;marginBottom=0;whiteSpace=wrap;html=1;rounded=1;gradientColor=#b3b3b3;strokeColor=#666666;" parent="1" vertex="1">
          <mxGeometry x="-1720" y="782" width="140" height="78" as="geometry" />
        </mxCell>
        <mxCell id="VLrxsNaVs1hE1eF33SKw-114" value="+ id" style="text;strokeColor=none;fillColor=none;align=left;verticalAlign=top;spacingLeft=4;spacingRight=4;overflow=hidden;rotatable=0;points=[[0,0.5],[1,0.5]];portConstraint=eastwest;whiteSpace=wrap;html=1;rounded=1;" parent="VLrxsNaVs1hE1eF33SKw-113" vertex="1">
          <mxGeometry y="26" width="140" height="26" as="geometry" />
        </mxCell>
        <mxCell id="VLrxsNaVs1hE1eF33SKw-115" value="+ FlyingHours" style="text;strokeColor=none;fillColor=none;align=left;verticalAlign=top;spacingLeft=4;spacingRight=4;overflow=hidden;rotatable=0;points=[[0,0.5],[1,0.5]];portConstraint=eastwest;whiteSpace=wrap;html=1;rounded=1;" parent="VLrxsNaVs1hE1eF33SKw-113" vertex="1">
          <mxGeometry y="52" width="140" height="26" as="geometry" />
        </mxCell>
        <mxCell id="VLrxsNaVs1hE1eF33SKw-116" value="Crew Assignmentes" style="swimlane;fontStyle=0;childLayout=stackLayout;horizontal=1;startSize=26;fillColor=#f5f5f5;horizontalStack=0;resizeParent=1;resizeParentMax=0;resizeLast=0;collapsible=1;marginBottom=0;whiteSpace=wrap;html=1;rounded=1;gradientColor=#b3b3b3;strokeColor=#666666;" parent="1" vertex="1">
          <mxGeometry x="-828.5" y="756" width="140" height="104" as="geometry" />
        </mxCell>
        <mxCell id="VLrxsNaVs1hE1eF33SKw-117" value="+ id" style="text;strokeColor=none;fillColor=none;align=left;verticalAlign=top;spacingLeft=4;spacingRight=4;overflow=hidden;rotatable=0;points=[[0,0.5],[1,0.5]];portConstraint=eastwest;whiteSpace=wrap;html=1;rounded=1;" parent="VLrxsNaVs1hE1eF33SKw-116" vertex="1">
          <mxGeometry y="26" width="140" height="26" as="geometry" />
        </mxCell>
        <mxCell id="VLrxsNaVs1hE1eF33SKw-118" value="+ field: type" style="text;strokeColor=none;fillColor=none;align=left;verticalAlign=top;spacingLeft=4;spacingRight=4;overflow=hidden;rotatable=0;points=[[0,0.5],[1,0.5]];portConstraint=eastwest;whiteSpace=wrap;html=1;rounded=1;" parent="VLrxsNaVs1hE1eF33SKw-116" vertex="1">
          <mxGeometry y="52" width="140" height="26" as="geometry" />
        </mxCell>
        <mxCell id="VLrxsNaVs1hE1eF33SKw-119" value="+ field: type" style="text;strokeColor=none;fillColor=none;align=left;verticalAlign=top;spacingLeft=4;spacingRight=4;overflow=hidden;rotatable=0;points=[[0,0.5],[1,0.5]];portConstraint=eastwest;whiteSpace=wrap;html=1;rounded=1;" parent="VLrxsNaVs1hE1eF33SKw-116" vertex="1">
          <mxGeometry y="78" width="140" height="26" as="geometry" />
        </mxCell>
        <mxCell id="VLrxsNaVs1hE1eF33SKw-124" value="" style="endArrow=none;html=1;rounded=1;entryX=0.63;entryY=0.01;entryDx=0;entryDy=0;entryPerimeter=0;exitX=0.881;exitY=0.958;exitDx=0;exitDy=0;exitPerimeter=0;" parent="1" target="VLrxsNaVs1hE1eF33SKw-116" edge="1" source="VLrxsNaVs1hE1eF33SKw-14">
          <mxGeometry relative="1" as="geometry">
            <mxPoint x="-830" y="570" as="sourcePoint" />
            <mxPoint x="-640" y="800" as="targetPoint" />
            <Array as="points">
              <mxPoint x="-830" y="620" />
              <mxPoint x="-740" y="620" />
            </Array>
          </mxGeometry>
        </mxCell>
        <mxCell id="VLrxsNaVs1hE1eF33SKw-125" value="" style="endArrow=none;html=1;rounded=1;entryX=1;entryY=0.023;entryDx=0;entryDy=0;exitX=0.838;exitY=0.953;exitDx=0;exitDy=0;exitPerimeter=0;entryPerimeter=0;" parent="1" source="VLrxsNaVs1hE1eF33SKw-128" target="VLrxsNaVs1hE1eF33SKw-115" edge="1">
          <mxGeometry relative="1" as="geometry">
            <mxPoint x="-589" y="839" as="sourcePoint" />
            <mxPoint x="-849" y="825" as="targetPoint" />
          </mxGeometry>
        </mxCell>
        <mxCell id="VLrxsNaVs1hE1eF33SKw-126" value="1" style="text;strokeColor=none;fillColor=none;spacingLeft=4;spacingRight=4;overflow=hidden;rotatable=0;points=[[0,0.5],[1,0.5]];portConstraint=eastwest;fontSize=12;whiteSpace=wrap;html=1;rounded=1;" parent="1" vertex="1">
          <mxGeometry x="-853" y="560" width="40" height="30" as="geometry" />
        </mxCell>
        <mxCell id="VLrxsNaVs1hE1eF33SKw-127" value="1..*" style="text;strokeColor=none;fillColor=none;spacingLeft=4;spacingRight=4;overflow=hidden;rotatable=0;points=[[0,0.5],[1,0.5]];portConstraint=eastwest;fontSize=12;whiteSpace=wrap;html=1;rounded=1;" parent="1" vertex="1">
          <mxGeometry x="-771.5" y="733" width="40" height="30" as="geometry" />
        </mxCell>
        <mxCell id="VLrxsNaVs1hE1eF33SKw-128" value="3..*" style="text;strokeColor=none;fillColor=none;spacingLeft=4;spacingRight=4;overflow=hidden;rotatable=0;points=[[0,0.5],[1,0.5]];portConstraint=eastwest;fontSize=12;whiteSpace=wrap;html=1;rounded=1;" parent="1" vertex="1">
          <mxGeometry x="-863" y="803" width="40" height="30" as="geometry" />
        </mxCell>
        <mxCell id="VLrxsNaVs1hE1eF33SKw-129" value="1" style="text;strokeColor=none;fillColor=none;spacingLeft=4;spacingRight=4;overflow=hidden;rotatable=0;points=[[0,0.5],[1,0.5]];portConstraint=eastwest;fontSize=12;whiteSpace=wrap;html=1;rounded=1;" parent="1" vertex="1">
          <mxGeometry x="-1580" y="802" width="40" height="30" as="geometry" />
        </mxCell>
        <mxCell id="VLrxsNaVs1hE1eF33SKw-130" value="" style="endArrow=none;html=1;rounded=1;exitX=0.658;exitY=0.049;exitDx=0;exitDy=0;exitPerimeter=0;entryX=0.614;entryY=0.994;entryDx=0;entryDy=0;entryPerimeter=0;" parent="1" source="VLrxsNaVs1hE1eF33SKw-13" target="VLrxsNaVs1hE1eF33SKw-12" edge="1">
          <mxGeometry relative="1" as="geometry">
            <mxPoint x="-806" y="208" as="sourcePoint" />
            <mxPoint x="-646" y="208" as="targetPoint" />
          </mxGeometry>
        </mxCell>
        <mxCell id="VLrxsNaVs1hE1eF33SKw-131" value="" style="endArrow=none;html=1;rounded=1;entryX=0.298;entryY=0.994;entryDx=0;entryDy=0;entryPerimeter=0;" parent="1" target="VLrxsNaVs1hE1eF33SKw-12" edge="1">
          <mxGeometry relative="1" as="geometry">
            <mxPoint x="-920" y="290" as="sourcePoint" />
            <mxPoint x="-779" y="220" as="targetPoint" />
          </mxGeometry>
        </mxCell>
        <mxCell id="VLrxsNaVs1hE1eF33SKw-132" value="1" style="text;strokeColor=none;fillColor=none;spacingLeft=4;spacingRight=4;overflow=hidden;rotatable=0;points=[[0,0.5],[1,0.5]];portConstraint=eastwest;fontSize=12;whiteSpace=wrap;html=1;rounded=1;" parent="1" vertex="1">
          <mxGeometry x="-1510" y="277" width="40" height="30" as="geometry" />
        </mxCell>
        <mxCell id="VLrxsNaVs1hE1eF33SKw-133" value="" style="endArrow=none;html=1;rounded=1;exitX=0.551;exitY=0.988;exitDx=0;exitDy=0;exitPerimeter=0;entryX=0.551;entryY=0.018;entryDx=0;entryDy=0;entryPerimeter=0;" parent="1" source="VLrxsNaVs1hE1eF33SKw-89" target="VLrxsNaVs1hE1eF33SKw-87" edge="1">
          <mxGeometry relative="1" as="geometry">
            <mxPoint x="-1230" y="-31.129999999999995" as="sourcePoint" />
            <mxPoint x="-1070" y="-31.129999999999995" as="targetPoint" />
          </mxGeometry>
        </mxCell>
        <mxCell id="VLrxsNaVs1hE1eF33SKw-134" value="" style="endArrow=none;html=1;rounded=1;entryX=0.01;entryY=0.19;entryDx=0;entryDy=0;entryPerimeter=0;" parent="1" target="VLrxsNaVs1hE1eF33SKw-110" edge="1">
          <mxGeometry relative="1" as="geometry">
            <mxPoint x="-420" y="632.87" as="sourcePoint" />
            <mxPoint x="-358" y="752.87" as="targetPoint" />
          </mxGeometry>
        </mxCell>
        <mxCell id="VLrxsNaVs1hE1eF33SKw-135" value="1" style="text;strokeColor=none;fillColor=none;spacingLeft=4;spacingRight=4;overflow=hidden;rotatable=0;points=[[0,0.5],[1,0.5]];portConstraint=eastwest;fontSize=12;whiteSpace=wrap;html=1;rounded=1;" parent="1" vertex="1">
          <mxGeometry x="-418" y="607.87" width="40" height="30" as="geometry" />
        </mxCell>
        <mxCell id="VLrxsNaVs1hE1eF33SKw-136" value="0..1" style="text;strokeColor=none;fillColor=none;spacingLeft=4;spacingRight=4;overflow=hidden;rotatable=0;points=[[0,0.5],[1,0.5]];portConstraint=eastwest;fontSize=12;whiteSpace=wrap;html=1;rounded=1;" parent="1" vertex="1">
          <mxGeometry x="-368" y="607.87" width="40" height="30" as="geometry" />
        </mxCell>
        <mxCell id="VLrxsNaVs1hE1eF33SKw-137" value="Role" style="swimlane;fontStyle=0;childLayout=stackLayout;horizontal=1;startSize=26;fillColor=#f5f5f5;horizontalStack=0;resizeParent=1;resizeParentMax=0;resizeLast=0;collapsible=1;marginBottom=0;whiteSpace=wrap;html=1;gradientColor=#b3b3b3;strokeColor=#666666;rounded=1;" parent="1" vertex="1">
          <mxGeometry x="-587" y="775" width="140" height="78" as="geometry" />
        </mxCell>
        <mxCell id="VLrxsNaVs1hE1eF33SKw-138" value="+ id" style="text;strokeColor=none;fillColor=none;align=left;verticalAlign=top;spacingLeft=4;spacingRight=4;overflow=hidden;rotatable=0;points=[[0,0.5],[1,0.5]];portConstraint=eastwest;whiteSpace=wrap;html=1;rounded=1;" parent="VLrxsNaVs1hE1eF33SKw-137" vertex="1">
          <mxGeometry y="26" width="140" height="26" as="geometry" />
        </mxCell>
        <mxCell id="VLrxsNaVs1hE1eF33SKw-139" value="+ Name" style="text;strokeColor=none;fillColor=none;align=left;verticalAlign=top;spacingLeft=4;spacingRight=4;overflow=hidden;rotatable=0;points=[[0,0.5],[1,0.5]];portConstraint=eastwest;whiteSpace=wrap;html=1;rounded=1;" parent="VLrxsNaVs1hE1eF33SKw-137" vertex="1">
          <mxGeometry y="52" width="140" height="26" as="geometry" />
        </mxCell>
        <mxCell id="VLrxsNaVs1hE1eF33SKw-140" value="" style="endArrow=none;html=1;rounded=1;exitX=0;exitY=0.5;exitDx=0;exitDy=0;" parent="1" source="VLrxsNaVs1hE1eF33SKw-138" edge="1">
          <mxGeometry relative="1" as="geometry">
            <mxPoint x="-769.54" y="955.3120000000004" as="sourcePoint" />
            <mxPoint x="-687" y="814" as="targetPoint" />
            <Array as="points" />
          </mxGeometry>
        </mxCell>
        <mxCell id="VLrxsNaVs1hE1eF33SKw-141" value="1..*" style="text;strokeColor=none;fillColor=none;spacingLeft=4;spacingRight=4;overflow=hidden;rotatable=0;points=[[0,0.5],[1,0.5]];portConstraint=eastwest;fontSize=12;whiteSpace=wrap;html=1;rounded=1;" parent="1" vertex="1">
          <mxGeometry x="-687" y="792" width="40" height="30" as="geometry" />
        </mxCell>
        <mxCell id="VLrxsNaVs1hE1eF33SKw-142" value="1" style="text;strokeColor=none;fillColor=none;spacingLeft=4;spacingRight=4;overflow=hidden;rotatable=0;points=[[0,0.5],[1,0.5]];portConstraint=eastwest;fontSize=12;whiteSpace=wrap;html=1;rounded=1;" parent="1" vertex="1">
          <mxGeometry x="-607" y="792" width="40" height="30" as="geometry" />
        </mxCell>
        <mxCell id="VLrxsNaVs1hE1eF33SKw-143" value="1..4" style="text;html=1;align=center;verticalAlign=middle;resizable=0;points=[];autosize=1;strokeColor=none;fillColor=none;rounded=1;" parent="1" vertex="1">
          <mxGeometry x="-1200" y="560" width="40" height="30" as="geometry" />
        </mxCell>
        <mxCell id="VLrxsNaVs1hE1eF33SKw-144" value="Person" style="swimlane;fontStyle=0;childLayout=stackLayout;horizontal=1;startSize=26;fillColor=#f5f5f5;horizontalStack=0;resizeParent=1;resizeParentMax=0;resizeLast=0;collapsible=1;marginBottom=0;whiteSpace=wrap;html=1;strokeColor=#666666;rounded=1;gradientColor=#b3b3b3;" parent="1" vertex="1">
          <mxGeometry x="-1730" y="505" width="140" height="130" as="geometry" />
        </mxCell>
        <mxCell id="VLrxsNaVs1hE1eF33SKw-145" value="+ DNI" style="text;strokeColor=none;fillColor=none;align=left;verticalAlign=top;spacingLeft=4;spacingRight=4;overflow=hidden;rotatable=0;points=[[0,0.5],[1,0.5]];portConstraint=eastwest;whiteSpace=wrap;html=1;rounded=1;" parent="VLrxsNaVs1hE1eF33SKw-144" vertex="1">
          <mxGeometry y="26" width="140" height="26" as="geometry" />
        </mxCell>
        <mxCell id="VLrxsNaVs1hE1eF33SKw-146" value="+ Name" style="text;strokeColor=none;fillColor=none;align=left;verticalAlign=top;spacingLeft=4;spacingRight=4;overflow=hidden;rotatable=0;points=[[0,0.5],[1,0.5]];portConstraint=eastwest;whiteSpace=wrap;html=1;rounded=1;" parent="VLrxsNaVs1hE1eF33SKw-144" vertex="1">
          <mxGeometry y="52" width="140" height="26" as="geometry" />
        </mxCell>
        <mxCell id="VLrxsNaVs1hE1eF33SKw-147" value="+ Phone" style="text;strokeColor=none;fillColor=none;align=left;verticalAlign=top;spacingLeft=4;spacingRight=4;overflow=hidden;rotatable=0;points=[[0,0.5],[1,0.5]];portConstraint=eastwest;whiteSpace=wrap;html=1;rounded=1;" parent="VLrxsNaVs1hE1eF33SKw-144" vertex="1">
          <mxGeometry y="78" width="140" height="26" as="geometry" />
        </mxCell>
        <mxCell id="VLrxsNaVs1hE1eF33SKw-148" value="+ Email" style="text;strokeColor=none;fillColor=none;align=left;verticalAlign=top;spacingLeft=4;spacingRight=4;overflow=hidden;rotatable=0;points=[[0,0.5],[1,0.5]];portConstraint=eastwest;whiteSpace=wrap;html=1;rounded=1;" parent="VLrxsNaVs1hE1eF33SKw-144" vertex="1">
          <mxGeometry y="104" width="140" height="26" as="geometry" />
        </mxCell>
        <mxCell id="VLrxsNaVs1hE1eF33SKw-149" value="" style="endArrow=block;endSize=16;endFill=0;html=1;rounded=1;exitX=0.5;exitY=0;exitDx=0;exitDy=0;" parent="1" source="VLrxsNaVs1hE1eF33SKw-113" edge="1">
          <mxGeometry x="-0.0337" y="-26" width="160" relative="1" as="geometry">
            <mxPoint x="-1460" y="770" as="sourcePoint" />
            <mxPoint x="-1650" y="640" as="targetPoint" />
            <mxPoint as="offset" />
          </mxGeometry>
        </mxCell>
        <mxCell id="VLrxsNaVs1hE1eF33SKw-150" value="" style="endArrow=none;html=1;rounded=1;entryX=0.458;entryY=0.966;entryDx=0;entryDy=0;entryPerimeter=0;" parent="1" target="VLrxsNaVs1hE1eF33SKw-66" edge="1">
          <mxGeometry width="50" height="50" relative="1" as="geometry">
            <mxPoint x="-1370" y="359" as="sourcePoint" />
            <mxPoint x="-1380" y="340" as="targetPoint" />
            <Array as="points">
              <mxPoint x="-1370" y="320" />
              <mxPoint x="-1340" y="320" />
            </Array>
          </mxGeometry>
        </mxCell>
        <mxCell id="VLrxsNaVs1hE1eF33SKw-151" value="" style="endArrow=none;html=1;rounded=1;entryX=0.5;entryY=0;entryDx=0;entryDy=0;exitX=0.5;exitY=1;exitDx=0;exitDy=0;" parent="1" source="VLrxsNaVs1hE1eF33SKw-65" target="VLrxsNaVs1hE1eF33SKw-63" edge="1">
          <mxGeometry width="50" height="50" relative="1" as="geometry">
            <mxPoint x="-1480" y="230" as="sourcePoint" />
            <mxPoint x="-1380" y="400" as="targetPoint" />
            <Array as="points">
              <mxPoint x="-1510" y="320" />
              <mxPoint x="-1420" y="320" />
            </Array>
          </mxGeometry>
        </mxCell>
        <mxCell id="VLrxsNaVs1hE1eF33SKw-152" value="" style="endArrow=none;html=1;rounded=1;exitX=0.5;exitY=1;exitDx=0;exitDy=0;" parent="1" source="VLrxsNaVs1hE1eF33SKw-62" edge="1">
          <mxGeometry width="50" height="50" relative="1" as="geometry">
            <mxPoint x="-1383" y="381" as="sourcePoint" />
            <mxPoint x="-1520" y="180" as="targetPoint" />
          </mxGeometry>
        </mxCell>
        <mxCell id="VLrxsNaVs1hE1eF33SKw-153" value="Passenger" style="swimlane;fontStyle=0;childLayout=stackLayout;horizontal=1;startSize=26;fillColor=#f5f5f5;horizontalStack=0;resizeParent=1;resizeParentMax=0;resizeLast=0;collapsible=1;marginBottom=0;whiteSpace=wrap;html=1;strokeColor=#666666;gradientColor=#b3b3b3;rounded=1;" parent="1" vertex="1">
          <mxGeometry x="-1898" y="339" width="140" height="104" as="geometry" />
        </mxCell>
        <mxCell id="VLrxsNaVs1hE1eF33SKw-154" value="+ Id" style="text;strokeColor=none;fillColor=none;align=left;verticalAlign=top;spacingLeft=4;spacingRight=4;overflow=hidden;rotatable=0;points=[[0,0.5],[1,0.5]];portConstraint=eastwest;whiteSpace=wrap;html=1;rounded=1;" parent="VLrxsNaVs1hE1eF33SKw-153" vertex="1">
          <mxGeometry y="26" width="140" height="26" as="geometry" />
        </mxCell>
        <mxCell id="VLrxsNaVs1hE1eF33SKw-155" value="+ Number of flights" style="text;strokeColor=none;fillColor=none;align=left;verticalAlign=top;spacingLeft=4;spacingRight=4;overflow=hidden;rotatable=0;points=[[0,0.5],[1,0.5]];portConstraint=eastwest;whiteSpace=wrap;html=1;rounded=1;" parent="VLrxsNaVs1hE1eF33SKw-153" vertex="1">
          <mxGeometry y="52" width="140" height="26" as="geometry" />
        </mxCell>
        <mxCell id="VLrxsNaVs1hE1eF33SKw-156" value="+ field: type" style="text;strokeColor=none;fillColor=none;align=left;verticalAlign=top;spacingLeft=4;spacingRight=4;overflow=hidden;rotatable=0;points=[[0,0.5],[1,0.5]];portConstraint=eastwest;whiteSpace=wrap;html=1;rounded=1;" parent="VLrxsNaVs1hE1eF33SKw-153" vertex="1">
          <mxGeometry y="78" width="140" height="26" as="geometry" />
        </mxCell>
        <mxCell id="VLrxsNaVs1hE1eF33SKw-158" value="" style="endArrow=none;html=1;rounded=1;entryX=0;entryY=0.5;entryDx=0;entryDy=0;exitX=0.993;exitY=0.163;exitDx=0;exitDy=0;exitPerimeter=0;" parent="1" source="VLrxsNaVs1hE1eF33SKw-185" target="VLrxsNaVs1hE1eF33SKw-63" edge="1">
          <mxGeometry width="50" height="50" relative="1" as="geometry">
            <mxPoint x="-1730" y="396" as="sourcePoint" />
            <mxPoint x="-1400" y="530" as="targetPoint" />
            <Array as="points">
              <mxPoint x="-1540" y="335" />
              <mxPoint x="-1540" y="396" />
            </Array>
          </mxGeometry>
        </mxCell>
        <mxCell id="VLrxsNaVs1hE1eF33SKw-159" value="" style="endArrow=none;html=1;rounded=1;exitX=0.689;exitY=-0.003;exitDx=0;exitDy=0;entryX=0.704;entryY=-0.044;entryDx=0;entryDy=0;entryPerimeter=0;exitPerimeter=0;" parent="1" source="VLrxsNaVs1hE1eF33SKw-153" target="VLrxsNaVs1hE1eF33SKw-1" edge="1">
          <mxGeometry width="50" height="50" relative="1" as="geometry">
            <mxPoint x="-1590" y="360" as="sourcePoint" />
            <mxPoint x="-1540" y="310" as="targetPoint" />
            <Array as="points">
              <mxPoint x="-1800" y="130" />
              <mxPoint x="-1127" y="130" />
            </Array>
          </mxGeometry>
        </mxCell>
        <mxCell id="VLrxsNaVs1hE1eF33SKw-160" value="" style="endArrow=none;html=1;rounded=1;entryX=0;entryY=0.5;entryDx=0;entryDy=0;" parent="1" source="VLrxsNaVs1hE1eF33SKw-81" target="VLrxsNaVs1hE1eF33SKw-155" edge="1">
          <mxGeometry width="50" height="50" relative="1" as="geometry">
            <mxPoint x="-1750" y="451" as="sourcePoint" />
            <mxPoint x="-1700" y="401" as="targetPoint" />
            <Array as="points">
              <mxPoint x="-1950" y="404" />
            </Array>
          </mxGeometry>
        </mxCell>
        <mxCell id="VLrxsNaVs1hE1eF33SKw-161" value="1" style="text;html=1;align=center;verticalAlign=middle;resizable=0;points=[];autosize=1;strokeColor=none;fillColor=none;rounded=1;" parent="1" vertex="1">
          <mxGeometry x="-1980" y="309.75" width="30" height="30" as="geometry" />
        </mxCell>
        <mxCell id="VLrxsNaVs1hE1eF33SKw-169" value="*" style="text;html=1;align=center;verticalAlign=middle;resizable=0;points=[];autosize=1;strokeColor=none;fillColor=none;rounded=1;container=1;" parent="1" vertex="1">
          <mxGeometry x="-1530" y="372.13" width="30" height="30" as="geometry" />
        </mxCell>
        <mxCell id="VLrxsNaVs1hE1eF33SKw-170" value="1" style="text;html=1;align=center;verticalAlign=middle;resizable=0;points=[];autosize=1;strokeColor=none;fillColor=none;rounded=1;" parent="1" vertex="1">
          <mxGeometry x="-1870" y="435" width="30" height="30" as="geometry" />
        </mxCell>
        <mxCell id="VLrxsNaVs1hE1eF33SKw-171" value="" style="endArrow=none;html=1;rounded=1;entryX=-0.002;entryY=0.181;entryDx=0;entryDy=0;exitX=1;exitY=0.5;exitDx=0;exitDy=0;entryPerimeter=0;" parent="1" source="-XnLPFKKrGhR97rvqXXB-8" target="VLrxsNaVs1hE1eF33SKw-102" edge="1">
          <mxGeometry relative="1" as="geometry">
            <mxPoint x="-994" y="414.87" as="sourcePoint" />
            <mxPoint x="-834" y="414.87" as="targetPoint" />
          </mxGeometry>
        </mxCell>
        <mxCell id="VLrxsNaVs1hE1eF33SKw-173" value="Check-in/Available Seat" style="swimlane;fontStyle=0;childLayout=stackLayout;horizontal=1;startSize=26;fillColor=#f5f5f5;horizontalStack=0;resizeParent=1;resizeParentMax=0;resizeLast=0;collapsible=1;marginBottom=0;whiteSpace=wrap;html=1;rounded=1;gradientColor=#b3b3b3;strokeColor=#666666;" parent="1" vertex="1">
          <mxGeometry x="-973" y="640" width="150" height="102" as="geometry" />
        </mxCell>
        <mxCell id="VLrxsNaVs1hE1eF33SKw-174" value="+ id" style="text;strokeColor=none;fillColor=none;align=left;verticalAlign=top;spacingLeft=4;spacingRight=4;overflow=hidden;rotatable=0;points=[[0,0.5],[1,0.5]];portConstraint=eastwest;whiteSpace=wrap;html=1;rounded=1;" parent="VLrxsNaVs1hE1eF33SKw-173" vertex="1">
          <mxGeometry y="26" width="150" height="24" as="geometry" />
        </mxCell>
        <mxCell id="VLrxsNaVs1hE1eF33SKw-175" value="+ Date" style="text;strokeColor=none;fillColor=none;align=left;verticalAlign=top;spacingLeft=4;spacingRight=4;overflow=hidden;rotatable=0;points=[[0,0.5],[1,0.5]];portConstraint=eastwest;whiteSpace=wrap;html=1;rounded=1;" parent="VLrxsNaVs1hE1eF33SKw-173" vertex="1">
          <mxGeometry y="50" width="150" height="26" as="geometry" />
        </mxCell>
        <mxCell id="VLrxsNaVs1hE1eF33SKw-176" value="+ Time" style="text;strokeColor=none;fillColor=none;align=left;verticalAlign=top;spacingLeft=4;spacingRight=4;overflow=hidden;rotatable=0;points=[[0,0.5],[1,0.5]];portConstraint=eastwest;whiteSpace=wrap;html=1;rounded=1;" parent="VLrxsNaVs1hE1eF33SKw-173" vertex="1">
          <mxGeometry y="76" width="150" height="26" as="geometry" />
        </mxCell>
        <mxCell id="VLrxsNaVs1hE1eF33SKw-183" value="Customer" style="swimlane;fontStyle=0;childLayout=stackLayout;horizontal=1;startSize=26;fillColor=#f5f5f5;horizontalStack=0;resizeParent=1;resizeParentMax=0;resizeLast=0;collapsible=1;marginBottom=0;whiteSpace=wrap;html=1;rounded=1;gradientColor=#b3b3b3;strokeColor=#666666;" parent="1" vertex="1">
          <mxGeometry x="-1740" y="279" width="140" height="130" as="geometry" />
        </mxCell>
        <mxCell id="VLrxsNaVs1hE1eF33SKw-184" value="+ id" style="text;strokeColor=none;fillColor=none;align=left;verticalAlign=top;spacingLeft=4;spacingRight=4;overflow=hidden;rotatable=0;points=[[0,0.5],[1,0.5]];portConstraint=eastwest;whiteSpace=wrap;html=1;rounded=1;" parent="VLrxsNaVs1hE1eF33SKw-183" vertex="1">
          <mxGeometry y="26" width="140" height="26" as="geometry" />
        </mxCell>
        <mxCell id="VLrxsNaVs1hE1eF33SKw-185" value="+ type" style="text;strokeColor=none;fillColor=none;align=left;verticalAlign=top;spacingLeft=4;spacingRight=4;overflow=hidden;rotatable=0;points=[[0,0.5],[1,0.5]];portConstraint=eastwest;whiteSpace=wrap;html=1;rounded=1;" parent="VLrxsNaVs1hE1eF33SKw-183" vertex="1">
          <mxGeometry y="52" width="140" height="26" as="geometry" />
        </mxCell>
        <mxCell id="VLrxsNaVs1hE1eF33SKw-188" value="+ item: attribute" style="text;strokeColor=none;fillColor=none;align=left;verticalAlign=top;spacingLeft=4;spacingRight=4;overflow=hidden;rotatable=0;points=[[0,0.5],[1,0.5]];portConstraint=eastwest;whiteSpace=wrap;html=1;rounded=1;" parent="VLrxsNaVs1hE1eF33SKw-183" vertex="1">
          <mxGeometry y="78" width="140" height="26" as="geometry" />
        </mxCell>
        <mxCell id="VLrxsNaVs1hE1eF33SKw-189" value="+ item: attribute" style="text;strokeColor=none;fillColor=none;align=left;verticalAlign=top;spacingLeft=4;spacingRight=4;overflow=hidden;rotatable=0;points=[[0,0.5],[1,0.5]];portConstraint=eastwest;whiteSpace=wrap;html=1;rounded=1;" parent="VLrxsNaVs1hE1eF33SKw-183" vertex="1">
          <mxGeometry y="104" width="140" height="26" as="geometry" />
        </mxCell>
        <mxCell id="VLrxsNaVs1hE1eF33SKw-187" value="" style="endArrow=block;endSize=16;endFill=0;html=1;rounded=1;exitX=0.681;exitY=1.016;exitDx=0;exitDy=0;exitPerimeter=0;" parent="1" source="VLrxsNaVs1hE1eF33SKw-156" edge="1" target="VLrxsNaVs1hE1eF33SKw-144">
          <mxGeometry x="-0.2316" y="-41" width="160" relative="1" as="geometry">
            <mxPoint x="-1730" y="430" as="sourcePoint" />
            <mxPoint x="-1700" y="500" as="targetPoint" />
            <mxPoint as="offset" />
          </mxGeometry>
        </mxCell>
        <mxCell id="VLrxsNaVs1hE1eF33SKw-190" value="1" style="text;html=1;align=center;verticalAlign=middle;resizable=0;points=[];autosize=1;strokeColor=none;fillColor=none;rounded=1;" parent="1" vertex="1">
          <mxGeometry x="-1600" y="308" width="30" height="30" as="geometry" />
        </mxCell>
        <mxCell id="VLrxsNaVs1hE1eF33SKw-191" value="" style="endArrow=block;endSize=16;endFill=0;html=1;rounded=1;entryX=0.5;entryY=0;entryDx=0;entryDy=0;exitX=0.573;exitY=1.154;exitDx=0;exitDy=0;exitPerimeter=0;" parent="1" source="VLrxsNaVs1hE1eF33SKw-189" target="VLrxsNaVs1hE1eF33SKw-144" edge="1">
          <mxGeometry x="0.1128" y="35" width="160" relative="1" as="geometry">
            <mxPoint x="-1800" y="395" as="sourcePoint" />
            <mxPoint x="-1640" y="395" as="targetPoint" />
            <mxPoint as="offset" />
          </mxGeometry>
        </mxCell>
        <mxCell id="-XnLPFKKrGhR97rvqXXB-5" value="" style="endArrow=none;html=1;rounded=1;exitX=0.881;exitY=-0.003;exitDx=0;exitDy=0;exitPerimeter=0;" edge="1" parent="1" source="VLrxsNaVs1hE1eF33SKw-14">
          <mxGeometry relative="1" as="geometry">
            <mxPoint x="-890" y="420" as="sourcePoint" />
            <mxPoint x="-760" y="320" as="targetPoint" />
            <Array as="points">
              <mxPoint x="-830" y="400" />
              <mxPoint x="-780" y="400" />
              <mxPoint x="-780" y="320" />
            </Array>
          </mxGeometry>
        </mxCell>
        <mxCell id="-XnLPFKKrGhR97rvqXXB-6" value="*" style="text;html=1;align=center;verticalAlign=middle;resizable=0;points=[];autosize=1;strokeColor=none;fillColor=none;rounded=1;" vertex="1" parent="1">
          <mxGeometry x="-863" y="455" width="30" height="30" as="geometry" />
        </mxCell>
        <mxCell id="-XnLPFKKrGhR97rvqXXB-7" value="*" style="text;html=1;align=center;verticalAlign=middle;resizable=0;points=[];autosize=1;strokeColor=none;fillColor=none;rounded=1;arcSize=0;" vertex="1" parent="1">
          <mxGeometry x="-820" y="499" width="30" height="30" as="geometry" />
        </mxCell>
        <mxCell id="-XnLPFKKrGhR97rvqXXB-9" value="" style="endArrow=none;html=1;rounded=1;entryX=0.951;entryY=1.114;entryDx=0;entryDy=0;exitX=1;exitY=0.5;exitDx=0;exitDy=0;entryPerimeter=0;" edge="1" parent="1" source="VLrxsNaVs1hE1eF33SKw-14" target="-XnLPFKKrGhR97rvqXXB-8">
          <mxGeometry relative="1" as="geometry">
            <mxPoint x="-813" y="521" as="sourcePoint" />
            <mxPoint x="-560" y="519" as="targetPoint" />
          </mxGeometry>
        </mxCell>
        <mxCell id="-XnLPFKKrGhR97rvqXXB-8" value="1" style="text;html=1;align=center;verticalAlign=middle;resizable=0;points=[];autosize=1;strokeColor=none;fillColor=none;rounded=1;" vertex="1" parent="1">
          <mxGeometry x="-618" y="492.87" width="30" height="30" as="geometry" />
        </mxCell>
        <mxCell id="-XnLPFKKrGhR97rvqXXB-13" value="*" style="text;html=1;align=center;verticalAlign=middle;resizable=0;points=[];autosize=1;strokeColor=none;fillColor=none;rounded=1;container=1;" vertex="1" parent="1">
          <mxGeometry x="-1135" y="387.75" width="30" height="30" as="geometry" />
        </mxCell>
        <mxCell id="-XnLPFKKrGhR97rvqXXB-14" value="1" style="text;html=1;align=center;verticalAlign=middle;resizable=0;points=[];autosize=1;strokeColor=none;fillColor=none;rounded=1;" vertex="1" parent="1">
          <mxGeometry x="-1830" y="309.75" width="30" height="30" as="geometry" />
        </mxCell>
      </root>
    </mxGraphModel>
  </diagram>
</mxfile>
